<svg width="123" height="25" viewBox="0 0 123 25" fill="none" xmlns="http://www.w3.org/2000/svg">
<path d="M30.152 18V6.544H34.296C35.2027 6.544 35.9813 6.84267 36.632 7.44C37.2827 8.02667 37.608 8.768 37.608 9.664C37.608 10.7947 37.0907 11.5893 36.056 12.048V12.112C36.6427 12.304 37.112 12.64 37.464 13.12C37.816 13.5893 37.992 14.128 37.992 14.736C37.992 15.6747 37.6507 16.4533 36.968 17.072C36.3067 17.6907 35.4907 18 34.52 18H30.152ZM31.624 7.952V11.456H34.296C34.8187 11.456 35.256 11.28 35.608 10.928C35.96 10.5653 36.136 10.1547 36.136 9.696C36.136 9.248 35.9653 8.84267 35.624 8.48C35.2827 8.128 34.8613 7.952 34.36 7.952H31.624ZM31.624 12.832V16.592H34.584C35.1173 16.592 35.5707 16.4053 35.944 16.032C36.3067 15.6587 36.488 15.216 36.488 14.704C36.488 14.2027 36.3013 13.7653 35.928 13.392C35.5547 13.0187 35.0853 12.832 34.52 12.832H31.624ZM40.468 15.6C40.468 15.984 40.628 16.304 40.948 16.56C41.2787 16.816 41.6627 16.944 42.1 16.944C42.7187 16.944 43.268 16.7147 43.748 16.256C44.2387 15.7973 44.484 15.2587 44.484 14.64C44.0253 14.2773 43.3853 14.096 42.564 14.096C41.9667 14.096 41.4653 14.24 41.06 14.528C40.6653 14.816 40.468 15.1733 40.468 15.6ZM42.372 9.904C43.46 9.904 44.3187 10.1973 44.948 10.784C45.5773 11.36 45.892 12.1547 45.892 13.168V18H44.484V16.912H44.42C43.812 17.808 43.0013 18.256 41.988 18.256C41.124 18.256 40.3987 18 39.812 17.488C39.236 16.976 38.948 16.336 38.948 15.568C38.948 14.7573 39.252 14.112 39.86 13.632C40.4787 13.152 41.3 12.912 42.324 12.912C43.1987 12.912 43.9187 13.072 44.484 13.392V13.056C44.484 12.544 44.2813 12.112 43.876 11.76C43.4707 11.3973 42.996 11.216 42.452 11.216C41.6307 11.216 40.98 11.5627 40.5 12.256L39.204 11.44C39.9187 10.416 40.9747 9.904 42.372 9.904ZM47.5523 10.16H48.9603V11.248H49.0243C49.2483 10.864 49.5896 10.544 50.0483 10.288C50.5176 10.032 51.0029 9.904 51.5043 9.904C52.4643 9.904 53.2003 10.1813 53.7123 10.736C54.2349 11.28 54.4963 12.0587 54.4963 13.072V18H53.0243V13.168C52.9923 11.888 52.3469 11.248 51.0883 11.248C50.5016 11.248 50.0109 11.488 49.6163 11.968C49.2216 12.4373 49.0243 13.0027 49.0243 13.664V18H47.5523V10.16ZM63.1201 18H61.3441L58.8961 14.304L57.6961 15.488V18H56.2241V6.544H57.6961V13.6L61.0881 10.16H62.9761V10.224L59.9201 13.264L63.1201 17.936V18ZM70.9935 7.952V18H69.5215V7.952H66.3215V6.544H74.1935V7.952H70.9935ZM75.993 18H74.521V10.16H75.929V11.44H75.993C76.1423 11.024 76.4463 10.672 76.905 10.384C77.3743 10.0853 77.833 9.936 78.281 9.936C78.7077 9.936 79.0703 10 79.369 10.128L78.921 11.552C78.7397 11.4773 78.4517 11.44 78.057 11.44C77.5023 11.44 77.017 11.664 76.601 12.112C76.1957 12.56 75.993 13.0827 75.993 13.68V18ZM81.093 15.6C81.093 15.984 81.253 16.304 81.573 16.56C81.9037 16.816 82.2877 16.944 82.725 16.944C83.3437 16.944 83.893 16.7147 84.373 16.256C84.8637 15.7973 85.109 15.2587 85.109 14.64C84.6503 14.2773 84.0103 14.096 83.189 14.096C82.5917 14.096 82.0903 14.24 81.685 14.528C81.2903 14.816 81.093 15.1733 81.093 15.6ZM82.997 9.904C84.085 9.904 84.9437 10.1973 85.573 10.784C86.2023 11.36 86.517 12.1547 86.517 13.168V18H85.109V16.912H85.045C84.437 17.808 83.6263 18.256 82.613 18.256C81.749 18.256 81.0237 18 80.437 17.488C79.861 16.976 79.573 16.336 79.573 15.568C79.573 14.7573 79.877 14.112 80.485 13.632C81.1037 13.152 81.925 12.912 82.949 12.912C83.8237 12.912 84.5437 13.072 85.109 13.392V13.056C85.109 12.544 84.9063 12.112 84.501 11.76C84.0957 11.3973 83.621 11.216 83.077 11.216C82.2557 11.216 81.605 11.5627 81.125 12.256L79.829 11.44C80.5437 10.416 81.5997 9.904 82.997 9.904ZM88.1773 10.16H89.5853V11.248H89.6493C89.8733 10.864 90.2146 10.544 90.6733 10.288C91.1426 10.032 91.6279 9.904 92.1293 9.904C93.0893 9.904 93.8253 10.1813 94.3373 10.736C94.8599 11.28 95.1213 12.0587 95.1213 13.072V18H93.6493V13.168C93.6173 11.888 92.9719 11.248 91.7133 11.248C91.1266 11.248 90.6359 11.488 90.2413 11.968C89.8466 12.4373 89.6493 13.0027 89.6493 13.664V18H88.1773V10.16ZM102.771 15.824C102.771 16.5067 102.472 17.0827 101.875 17.552C101.278 18.0213 100.526 18.256 99.619 18.256C98.8297 18.256 98.1363 18.0533 97.539 17.648C96.9417 17.232 96.515 16.688 96.259 16.016L97.571 15.456C97.763 15.9253 98.0403 16.2933 98.403 16.56C98.7763 16.816 99.1817 16.944 99.619 16.944C100.088 16.944 100.478 16.8427 100.787 16.64C101.107 16.4373 101.267 16.1973 101.267 15.92C101.267 15.4187 100.883 15.0507 100.115 14.816L98.771 14.48C97.2457 14.096 96.483 13.36 96.483 12.272C96.483 11.5573 96.771 10.9867 97.347 10.56C97.9337 10.1227 98.6803 9.904 99.587 9.904C100.28 9.904 100.904 10.0693 101.459 10.4C102.024 10.7307 102.419 11.1733 102.643 11.728L101.331 12.272C101.182 11.9413 100.936 11.6853 100.595 11.504C100.264 11.312 99.891 11.216 99.475 11.216C99.091 11.216 98.7443 11.312 98.435 11.504C98.1363 11.696 97.987 11.9307 97.987 12.208C97.987 12.656 98.4083 12.976 99.251 13.168L100.435 13.472C101.992 13.856 102.771 14.64 102.771 15.824ZM107.668 6.416C108.202 6.416 108.639 6.50667 108.98 6.688L108.58 7.984C108.324 7.856 108.036 7.792 107.716 7.792C107.354 7.792 107.055 7.92 106.82 8.176C106.596 8.42133 106.484 8.752 106.484 9.168V10.16H108.532V11.504H106.484V18H105.012V11.504H103.54V10.16H105.012V9.024C105.012 8.24533 105.258 7.616 105.748 7.136C106.25 6.656 106.89 6.416 107.668 6.416ZM112.979 18.256C111.827 18.256 110.877 17.8613 110.131 17.072C109.384 16.2827 109.011 15.2853 109.011 14.08C109.011 12.8853 109.373 11.8933 110.099 11.104C110.824 10.304 111.752 9.904 112.883 9.904C114.045 9.904 114.968 10.2827 115.651 11.04C116.344 11.7867 116.691 12.8373 116.691 14.192L116.675 14.352H110.515C110.536 15.12 110.792 15.7387 111.283 16.208C111.773 16.6773 112.36 16.912 113.043 16.912C113.981 16.912 114.717 16.4427 115.251 15.504L116.562 16.144C116.211 16.8053 115.72 17.3227 115.091 17.696C114.472 18.0693 113.768 18.256 112.979 18.256ZM110.627 13.136H115.123C115.08 12.592 114.856 12.144 114.451 11.792C114.056 11.4293 113.523 11.248 112.851 11.248C112.296 11.248 111.816 11.4187 111.411 11.76C111.016 12.1013 110.755 12.56 110.627 13.136ZM119.509 18H118.037V10.16H119.445V11.44H119.509C119.658 11.024 119.962 10.672 120.421 10.384C120.89 10.0853 121.349 9.936 121.797 9.936C122.223 9.936 122.586 10 122.885 10.128L122.437 11.552C122.255 11.4773 121.967 11.44 121.573 11.44C121.018 11.44 120.533 11.664 120.117 12.112C119.711 12.56 119.509 13.0827 119.509 13.68V18Z" fill="black"/>
<g clip-path="url(#clip0_9064_7501)">
<path fill-rule="evenodd" clip-rule="evenodd" d="M10 2.00001C9.67489 2.00024 9.35639 2.09264 9.08075 2.26667L0.846792 7.78286L0.845283 7.78591C0.570514 7.96075 0.364722 8.22683 0.263336 8.53833C0.161949 8.84984 0.171312 9.18729 0.289811 9.49257C0.513207 10.0701 1.08075 10.4632 1.76604 10.4632H1.90189V16.4853H1.64075C0.710943 16.4853 0 17.2594 0 18.1615V20.3253C0 21.2274 0.710943 22 1.64075 22H18.3608C19.2891 22 20 21.2274 20 20.3253V18.1615C20 17.2594 19.2891 16.4853 18.3608 16.4853H18.0981V10.4632H18.234C18.9192 10.4632 19.4868 10.0701 19.7102 9.4941C19.8292 9.18879 19.839 8.85112 19.7379 8.5393C19.6368 8.22748 19.4311 7.96104 19.1562 7.78591L19.1532 7.78439L10.9208 2.2682L10.8906 2.24534C10.6211 2.08391 10.3133 1.99914 10 2.00001ZM15.4581 10.4632H13.5804V16.4853H15.4566L15.4581 10.4632ZM10.9389 10.4632H9.06113V16.4853H10.9389V10.4632ZM6.41962 10.4632H4.5434V16.4853H6.41962V10.4632ZM1.88679 18.3901V20.0952H18.1132V18.3901H1.88679Z" fill="black"/>
</g>
<defs>
<clipPath id="clip0_9064_7501">
<rect width="20" height="20" fill="white" transform="translate(0 2)"/>
</clipPath>
</defs>
</svg>
