<svg width="86" height="23" viewBox="0 0 86 23" fill="none" xmlns="http://www.w3.org/2000/svg">
<path d="M32.0502 4.70386H27.307C26.9824 4.70386 26.7064 4.94083 26.6558 5.26283L24.7374 17.4856C24.6993 17.7267 24.8851 17.9442 25.1286 17.9442H27.393C27.7176 17.9442 27.9936 17.7072 28.0442 17.3845L28.5616 14.0879C28.6116 13.7652 28.8883 13.5282 29.2122 13.5282H30.7137C33.8381 13.5282 35.6414 12.0088 36.1123 8.99789C36.3245 7.68061 36.1213 6.64561 35.5075 5.92077C34.8334 5.12483 33.6377 4.70386 32.0502 4.70386ZM32.5974 9.16795C32.338 10.8783 31.0376 10.8783 29.7802 10.8783H29.0644L29.5666 7.6841C29.5964 7.49104 29.7629 7.34886 29.957 7.34886H30.2851C31.1416 7.34886 31.9496 7.34886 32.3671 7.83952C32.6161 8.13225 32.6924 8.56716 32.5974 9.16795Z" fill="#253B80"/>
<path d="M46.2274 9.11286H43.956C43.7625 9.11286 43.5954 9.25504 43.5656 9.4481L43.465 10.0865L43.3062 9.85513C42.8145 9.13795 41.718 8.89819 40.6235 8.89819C38.1136 8.89819 35.9698 10.8086 35.5523 13.4884C35.3352 14.8252 35.6439 16.1035 36.3985 16.9949C37.0906 17.8145 38.081 18.156 39.2593 18.156C41.2817 18.156 42.4032 16.8492 42.4032 16.8492L42.3019 17.4835C42.2638 17.726 42.4497 17.9435 42.6917 17.9435H44.7377C45.0629 17.9435 45.3376 17.7065 45.3889 17.3838L46.6165 9.57147C46.6553 9.33101 46.4702 9.11286 46.2274 9.11286ZM43.0614 13.5553C42.8422 14.8594 41.8123 15.7348 40.4987 15.7348C39.8391 15.7348 39.312 15.5222 38.9736 15.1193C38.6379 14.7193 38.5103 14.1499 38.6171 13.5156C38.8217 12.2227 39.869 11.3188 41.1624 11.3188C41.8074 11.3188 42.3318 11.5341 42.6771 11.9405C43.0232 12.351 43.1605 12.9239 43.0614 13.5553Z" fill="#253B80"/>
<path d="M58.3248 9.11285H56.0423C55.8245 9.11285 55.6199 9.22158 55.4965 9.40349L52.3485 14.0634L51.0141 9.5854C50.9302 9.30522 50.6729 9.11285 50.3816 9.11285H48.1386C47.8661 9.11285 47.6767 9.38049 47.7634 9.63837L50.2775 17.0527L47.9139 20.4059C47.7281 20.67 47.9153 21.0331 48.2364 21.0331H50.5161C50.7325 21.0331 50.935 20.9272 51.0578 20.7488L58.6494 9.73664C58.8311 9.47319 58.6445 9.11285 58.3248 9.11285Z" fill="#253B80"/>
<path d="M65.8822 4.70386H61.1383C60.8145 4.70386 60.5384 4.94083 60.4878 5.26283L58.5694 17.4856C58.5313 17.7267 58.7172 17.9442 58.9592 17.9442H61.3936C61.6197 17.9442 61.8132 17.7783 61.8485 17.5525L62.393 14.0879C62.4429 13.7652 62.7196 13.5282 63.0435 13.5282H64.5444C67.6695 13.5282 69.472 12.0088 69.9436 8.99789C70.1565 7.68061 69.952 6.64561 69.3382 5.92077C68.6647 5.12483 67.4697 4.70386 65.8822 4.70386ZM66.4294 9.16795C66.1707 10.8783 64.8703 10.8783 63.6122 10.8783H62.8972L63.4 7.6841C63.4298 7.49104 63.5949 7.34886 63.7898 7.34886H64.1178C64.9737 7.34886 65.7823 7.34886 66.1999 7.83952C66.4488 8.13225 66.5244 8.56716 66.4294 9.16795Z" fill="#179BD7"/>
<path d="M80.0584 9.11286H77.7885C77.5936 9.11286 77.4278 9.25504 77.3987 9.4481L77.2981 10.0865L77.1386 9.85513C76.6469 9.13795 75.5511 8.89819 74.4566 8.89819C71.9467 8.89819 69.8036 10.8086 69.3861 13.4884C69.1697 14.8252 69.477 16.1035 70.2316 16.9949C70.9251 17.8145 71.9141 18.156 73.0924 18.156C75.1148 18.156 76.2363 16.8492 76.2363 16.8492L76.135 17.4835C76.0969 17.726 76.2828 17.9435 76.5262 17.9435H78.5715C78.8954 17.9435 79.1714 17.7065 79.222 17.3838L80.4503 9.57147C80.4877 9.33101 80.3019 9.11286 80.0584 9.11286ZM76.8924 13.5553C76.6746 14.8594 75.6433 15.7348 74.3297 15.7348C73.6716 15.7348 73.1431 15.5222 72.8046 15.1193C72.4689 14.7193 72.3427 14.1499 72.4481 13.5156C72.6541 12.2227 73.7 11.3188 74.9935 11.3188C75.6385 11.3188 76.1628 11.5341 76.5082 11.9405C76.8556 12.351 76.993 12.9239 76.8924 13.5553Z" fill="#179BD7"/>
<path d="M82.7369 5.03906L80.7901 17.4855C80.752 17.7267 80.9379 17.9442 81.1799 17.9442H83.1371C83.4624 17.9442 83.7384 17.7072 83.7883 17.3845L85.7081 5.16243C85.7462 4.92128 85.5604 4.70312 85.3183 4.70312H83.1267C82.9332 4.70382 82.7667 4.846 82.7369 5.03906Z" fill="#179BD7"/>
<path d="M5.0398 20.3194L5.40252 18.0041L4.59454 17.9853H0.736328L3.41759 0.900472C3.42591 0.848896 3.45296 0.800805 3.49249 0.766654C3.53202 0.732502 3.58265 0.713684 3.63536 0.713684H10.1408C12.3006 0.713684 13.791 1.16532 14.5691 2.05674C14.934 2.47493 15.1663 2.91193 15.2786 3.39284C15.3966 3.89744 15.3986 4.50032 15.2835 5.23562L15.2752 5.28929V5.76044L15.64 5.96814C15.9472 6.13193 16.1914 6.31941 16.3786 6.53408C16.6907 6.89162 16.8925 7.34605 16.9778 7.8848C17.0659 8.4389 17.0368 9.09823 16.8925 9.84468C16.7261 10.7034 16.457 11.4512 16.0936 12.0631C15.7593 12.627 15.3334 13.0947 14.8278 13.4571C14.3451 13.8014 13.7716 14.0627 13.1231 14.23C12.4947 14.3945 11.7783 14.4774 10.9925 14.4774H10.4862C10.1242 14.4774 9.77257 14.6085 9.49654 14.8434C9.21981 15.0831 9.03671 15.4107 8.98054 15.7689L8.94239 15.9773L8.30155 20.0581L8.27242 20.2079C8.2648 20.2553 8.25162 20.279 8.2322 20.295C8.21486 20.3097 8.18989 20.3194 8.16562 20.3194H5.0398Z" fill="#253B80"/>
<path d="M15.984 5.34369C15.9646 5.46845 15.9424 5.59599 15.9174 5.72702C15.0595 10.1535 12.1244 11.6826 8.37578 11.6826H6.46714C6.0087 11.6826 5.6224 12.0172 5.55096 12.4716L4.57375 18.6997L4.29703 20.4651C4.25056 20.7634 4.47943 21.0325 4.77904 21.0325H8.16425C8.56512 21.0325 8.90565 20.7397 8.96877 20.3425L9.00206 20.1696L9.63943 16.1049L9.68035 15.8819C9.74277 15.4832 10.084 15.1905 10.4849 15.1905H10.9912C14.2709 15.1905 16.8385 13.8523 17.5889 9.97993C17.9024 8.36226 17.7401 7.01154 16.9106 6.06157C16.6595 5.77511 16.3481 5.53745 15.984 5.34369Z" fill="#179BD7"/>
<path d="M15.0883 4.98402C14.9573 4.94568 14.822 4.91083 14.6833 4.87947C14.5439 4.8488 14.401 4.82162 14.254 4.79792C13.7394 4.71429 13.1755 4.67456 12.5714 4.67456H7.47248C7.34694 4.67456 7.22765 4.70314 7.12085 4.75471C6.88573 4.86832 6.71096 5.09205 6.66865 5.36595L5.58394 12.2701L5.55273 12.4716C5.62417 12.0171 6.01048 11.6826 6.46891 11.6826H8.37756C12.1262 11.6826 15.0613 10.1527 15.9192 5.72698C15.9449 5.59595 15.9664 5.46841 15.9858 5.34365C15.7687 5.22795 15.5336 5.12898 15.2804 5.04465C15.218 5.02374 15.1535 5.00353 15.0883 4.98402Z" fill="#222D65"/>
<path d="M6.66777 5.36597C6.71007 5.09206 6.88485 4.86833 7.11996 4.75542C7.22746 4.70385 7.34606 4.67527 7.47159 4.67527H12.5706C13.1746 4.67527 13.7385 4.715 14.2531 4.79864C14.4001 4.82233 14.543 4.84952 14.6824 4.88018C14.8211 4.91155 14.9564 4.94639 15.0874 4.98473C15.1526 5.00424 15.2171 5.02446 15.2802 5.04467C15.5334 5.129 15.7685 5.22867 15.9856 5.34367C16.2408 3.70788 15.9835 2.59412 15.1034 1.58561C14.1331 0.475333 12.3819 0 10.1411 0H3.63557C3.17783 0 2.78736 0.334545 2.71662 0.789667L0.00692773 18.0501C-0.0464755 18.3916 0.215686 18.6997 0.558299 18.6997H4.57464L5.58306 12.2702L6.66777 5.36597Z" fill="#253B80"/>
</svg>
