<svg width="85" height="28" viewBox="0 0 85 28" fill="none" xmlns="http://www.w3.org/2000/svg">
<rect x="0.078125" width="84" height="28" rx="3" fill="#EEEEEE"/>
<g clip-path="url(#clip0_5593_134)">
<path d="M33.4189 8.68115H29.6685C29.4119 8.68115 29.1936 8.86661 29.1536 9.11861L27.6367 18.6842C27.6066 18.873 27.7536 19.0432 27.946 19.0432H29.7365C29.9932 19.0432 30.2114 18.8577 30.2515 18.6052L30.6606 16.0252C30.7 15.7726 30.9188 15.5872 31.1749 15.5872H32.3622C34.8327 15.5872 36.2585 14.3981 36.6308 12.0417C36.7987 11.0108 36.638 10.2008 36.1527 9.63352C35.6196 9.01061 34.6742 8.68115 33.4189 8.68115ZM33.8516 12.1748C33.6465 13.5133 32.6183 13.5133 31.6241 13.5133H31.0581L31.4552 11.0135C31.4788 10.8624 31.6104 10.7512 31.7639 10.7512H32.0233C32.7006 10.7512 33.3394 10.7512 33.6696 11.1352C33.8664 11.3642 33.9267 11.7046 33.8516 12.1748Z" fill="#253B80"/>
<path d="M44.6312 12.1319H42.8353C42.6823 12.1319 42.5501 12.2431 42.5265 12.3942L42.447 12.8939L42.3214 12.7128C41.9326 12.1515 41.0656 11.9639 40.2003 11.9639C38.2156 11.9639 36.5206 13.459 36.1904 15.5562C36.0188 16.6024 36.2628 17.6028 36.8595 18.3004C37.4068 18.9419 38.1899 19.2091 39.1216 19.2091C40.7207 19.2091 41.6074 18.1864 41.6074 18.1864L41.5273 18.6828C41.4972 18.8726 41.6442 19.0428 41.8355 19.0428H43.4533C43.7105 19.0428 43.9276 18.8573 43.9682 18.6048L44.9389 12.4908C44.9696 12.3026 44.8232 12.1319 44.6312 12.1319ZM42.1278 15.6086C41.9545 16.6291 41.1402 17.3142 40.1015 17.3142C39.58 17.3142 39.1633 17.1479 38.8956 16.8326C38.6302 16.5195 38.5293 16.0739 38.6138 15.5775C38.7755 14.5657 39.6036 13.8582 40.6263 13.8582C41.1363 13.8582 41.5509 14.0268 41.824 14.3448C42.0977 14.666 42.2063 15.1144 42.1278 15.6086Z" fill="#253B80"/>
<path d="M54.1958 12.1318H52.391C52.2188 12.1318 52.057 12.2169 51.9594 12.3593L49.4703 16.0062L48.4152 12.5017C48.3489 12.2824 48.1454 12.1318 47.9151 12.1318H46.1416C45.9261 12.1318 45.7764 12.3413 45.8449 12.5431L47.8328 18.3457L45.9639 20.9698C45.817 21.1766 45.965 21.4607 46.2189 21.4607H48.0215C48.1926 21.4607 48.3527 21.3778 48.4498 21.2382L54.4524 12.62C54.5961 12.4138 54.4486 12.1318 54.1958 12.1318Z" fill="#253B80"/>
<path d="M60.1689 8.68115H56.418C56.1619 8.68115 55.9436 8.86661 55.9036 9.11861L54.3868 18.6842C54.3566 18.873 54.5036 19.0432 54.6949 19.0432H56.6198C56.7986 19.0432 56.9516 18.9133 56.9795 18.7366L57.41 16.0252C57.4495 15.7726 57.6683 15.5872 57.9244 15.5872H59.1111C61.5821 15.5872 63.0074 14.3981 63.3803 12.0417C63.5487 11.0108 63.3869 10.2008 62.9016 9.63352C62.3691 9.01061 61.4242 8.68115 60.1689 8.68115ZM60.6016 12.1748C60.3971 13.5133 59.3688 13.5133 58.3741 13.5133H57.8087L58.2063 11.0135C58.2298 10.8624 58.3604 10.7512 58.5145 10.7512H58.7738C59.4506 10.7512 60.09 10.7512 60.4201 11.1352C60.617 11.3642 60.6768 11.7046 60.6016 12.1748Z" fill="#179BD7"/>
<path d="M71.3789 12.1319H69.584C69.4299 12.1319 69.2988 12.2431 69.2758 12.3942L69.1963 12.8939L69.0702 12.7128C68.6814 12.1515 67.8149 11.9639 66.9496 11.9639C64.9649 11.9639 63.2704 13.459 62.9403 15.5562C62.7692 16.6024 63.0121 17.6028 63.6088 18.3004C64.1572 18.9419 64.9392 19.2091 65.8709 19.2091C67.47 19.2091 68.3567 18.1864 68.3567 18.1864L68.2766 18.6828C68.2465 18.8726 68.3935 19.0428 68.5859 19.0428H70.2031C70.4592 19.0428 70.6775 18.8573 70.7175 18.6048L71.6887 12.4908C71.7183 12.3026 71.5714 12.1319 71.3789 12.1319ZM68.8755 15.6086C68.7033 16.6291 67.8878 17.3142 66.8492 17.3142C66.3288 17.3142 65.9109 17.1479 65.6433 16.8326C65.3779 16.5195 65.2781 16.0739 65.3614 15.5775C65.5243 14.5657 66.3513 13.8582 67.374 13.8582C67.884 13.8582 68.2986 14.0268 68.5717 14.3448C68.8464 14.666 68.955 15.1144 68.8755 15.6086Z" fill="#179BD7"/>
<path d="M73.4964 8.94357L71.9571 18.6843C71.9269 18.873 72.0739 19.0432 72.2653 19.0432H73.8128C74.07 19.0432 74.2883 18.8578 74.3277 18.6052L75.8457 9.04012C75.8758 8.85139 75.7289 8.68066 75.5375 8.68066H73.8046C73.6516 8.68121 73.52 8.79248 73.4964 8.94357Z" fill="#179BD7"/>
<path d="M12.0629 20.9022L12.3497 19.0902L11.7108 19.0755H8.66016L10.7802 5.70478C10.7868 5.66441 10.8082 5.62678 10.8394 5.60005C10.8707 5.57332 10.9107 5.55859 10.9524 5.55859H16.0963C17.804 5.55859 18.9824 5.91205 19.5977 6.60968C19.8862 6.93696 20.0699 7.27896 20.1587 7.65532C20.252 8.05023 20.2536 8.52205 20.1626 9.0975L20.156 9.1395V9.50823L20.4444 9.67078C20.6874 9.79896 20.8804 9.94568 21.0285 10.1137C21.2753 10.3935 21.4348 10.7491 21.5023 11.1708C21.5719 11.6044 21.5489 12.1204 21.4348 12.7046C21.3032 13.3766 21.0904 13.9619 20.8031 14.4408C20.5388 14.882 20.2021 15.248 19.8023 15.5317C19.4206 15.8011 18.9671 16.0057 18.4543 16.1366C17.9575 16.2653 17.391 16.3302 16.7697 16.3302H16.3694C16.0831 16.3302 15.8051 16.4328 15.5868 16.6166C15.368 16.8042 15.2233 17.0606 15.1788 17.341L15.1487 17.504L14.642 20.6977L14.6189 20.815C14.6129 20.852 14.6025 20.8706 14.5871 20.8831C14.5734 20.8946 14.5537 20.9022 14.5345 20.9022H12.0629Z" fill="#253B80"/>
<path d="M20.7183 9.18213C20.7029 9.27977 20.6854 9.37958 20.6656 9.48213C19.9873 12.9463 17.6665 14.143 14.7025 14.143H13.1933C12.8308 14.143 12.5254 14.4049 12.4689 14.7605L11.6962 19.6347L11.4774 21.0163C11.4407 21.2498 11.6216 21.4603 11.8585 21.4603H14.5352C14.8522 21.4603 15.1214 21.2312 15.1713 20.9203L15.1977 20.785L15.7016 17.6039L15.734 17.4294C15.7833 17.1174 16.0532 16.8883 16.3701 16.8883H16.7704C19.3638 16.8883 21.3939 15.841 21.9872 12.8105C22.2351 11.5445 22.1068 10.4874 21.4509 9.74395C21.2524 9.51977 21.0062 9.33377 20.7183 9.18213Z" fill="#179BD7"/>
<path d="M20.0085 8.90039C19.9049 8.87039 19.7979 8.84311 19.6883 8.81857C19.578 8.79457 19.4651 8.77329 19.3488 8.75475C18.9419 8.68929 18.4961 8.6582 18.0184 8.6582H13.9867C13.8874 8.6582 13.7931 8.68057 13.7087 8.72093C13.5227 8.80984 13.3846 8.98493 13.3511 9.19929L12.4934 14.6026L12.4688 14.7602C12.5252 14.4046 12.8307 14.1427 13.1932 14.1427H14.7023C17.6664 14.1427 19.9871 12.9455 20.6655 9.48184C20.6858 9.37929 20.7028 9.27948 20.7181 9.18184C20.5465 9.09129 20.3606 9.01384 20.1604 8.94784C20.1111 8.93148 20.0601 8.91566 20.0085 8.90039Z" fill="#222D65"/>
<path d="M13.3503 9.19945C13.3838 8.98509 13.522 8.81 13.7079 8.72164C13.7929 8.68127 13.8866 8.65891 13.9859 8.65891H18.0176C18.4953 8.65891 18.9411 8.69 19.348 8.75545C19.4643 8.774 19.5772 8.79527 19.6875 8.81927C19.7972 8.84382 19.9041 8.87109 20.0077 8.90109C20.0593 8.91636 20.1103 8.93218 20.1602 8.948C20.3603 9.014 20.5462 9.092 20.7179 9.182C20.9197 7.90182 20.7162 7.03018 20.0203 6.24091C19.2532 5.372 17.8685 5 16.0966 5H10.9528C10.5908 5 10.2821 5.26182 10.2262 5.618L8.0836 19.1262C8.04138 19.3935 8.24867 19.6345 8.51957 19.6345H11.6953L12.4926 14.6027L13.3503 9.19945Z" fill="#253B80"/>
</g>
<defs>
<clipPath id="clip0_5593_134">
<rect width="68" height="18" fill="white" transform="translate(8.07812 5)"/>
</clipPath>
</defs>
</svg>
