<svg width="12" height="16" viewBox="0 0 12 16" fill="none" xmlns="http://www.w3.org/2000/svg">
<g clip-path="url(#clip0_3007_2960)">
<path d="M3.33341 16C4.80541 16 6.00008 14.8054 6.00008 13.3334V10.6667H3.33341C1.86141 10.6667 0.666748 11.8614 0.666748 13.3334C0.666748 14.8054 1.86141 16 3.33341 16Z" fill="#0ACF83"/>
<path d="M0.666748 7.99998C0.666748 6.52798 1.86141 5.33331 3.33341 5.33331H6.00008V10.6666H3.33341C1.86141 10.6666 0.666748 9.47198 0.666748 7.99998Z" fill="#A259FF"/>
<path d="M0.666748 2.66667C0.666748 1.19467 1.86141 0 3.33341 0H6.00008V5.33333H3.33341C1.86141 5.33333 0.666748 4.13867 0.666748 2.66667Z" fill="#F24E1E"/>
<path d="M6 0H8.66667C10.1387 0 11.3333 1.19467 11.3333 2.66667C11.3333 4.13867 10.1387 5.33333 8.66667 5.33333H6V0Z" fill="#FF7262"/>
<path d="M11.3333 7.99998C11.3333 9.47198 10.1387 10.6666 8.66667 10.6666C7.19467 10.6666 6 9.47198 6 7.99998C6 6.52798 7.19467 5.33331 8.66667 5.33331C10.1387 5.33331 11.3333 6.52798 11.3333 7.99998Z" fill="#1ABCFE"/>
</g>
<defs>
<clipPath id="clip0_3007_2960">
<rect width="10.6667" height="16" fill="white" transform="translate(0.666748)"/>
</clipPath>
</defs>
</svg>
