<svg width="36" height="36" viewBox="0 0 36 36" fill="none" xmlns="http://www.w3.org/2000/svg">
<path fill-rule="evenodd" clip-rule="evenodd" d="M3.78215 2.6744C4.17612 2.41831 4.94437 1.86675 5.27925 1.65006C5.35805 1.59097 5.49594 1.57127 5.57473 1.63036C5.92931 1.84705 6.79605 2.41831 7.20972 2.6744C7.40671 2.79259 7.30822 2.87138 7.20972 2.95018C6.83545 3.16686 6.0672 3.65933 5.67322 3.85632C5.43684 3.97451 5.35805 3.93511 5.25955 3.87602C4.90497 3.65933 4.13672 3.18656 3.78215 2.95018C3.62456 2.87138 3.58516 2.79259 3.78215 2.6744Z" fill="white"/>
<path fill-rule="evenodd" clip-rule="evenodd" d="M8.39165 6.63383C8.98261 6.23986 10.0463 5.49131 10.5585 5.13673C10.7161 4.97914 10.9722 4.97914 11.1298 5.13673C11.6813 5.51101 12.9027 6.25956 13.4936 6.67323C13.6512 6.79142 13.73 6.96871 13.533 7.1066C13.0012 7.46118 11.8192 8.09154 11.2283 8.46582C10.8737 8.6825 10.7161 8.62341 10.5191 8.48551C9.98725 8.15064 8.96291 7.52028 8.41135 7.146C8.11587 6.94901 8.01737 6.87022 8.39165 6.63383Z" fill="white"/>
<path fill-rule="evenodd" clip-rule="evenodd" d="M13.5133 4.17149C14.0255 3.83662 14.7741 3.34415 15.168 3.06836C15.3256 2.91078 15.562 2.89108 15.7393 2.98957C16.2121 3.30475 17.2364 3.95481 17.7092 4.26999C17.8274 4.34878 17.9258 4.48667 17.6501 4.62456C17.1773 4.90035 16.3106 5.39281 15.8378 5.6686C15.5029 5.86558 15.365 5.80649 15.1286 5.6292C14.6953 5.33372 13.9664 4.88065 13.533 4.62456C13.2376 4.46697 13.2572 4.32908 13.5133 4.17149Z" fill="white"/>
<path fill-rule="evenodd" clip-rule="evenodd" d="M15.2271 12.248C14.5377 11.8146 13.2178 11.0857 12.5087 10.6524C12.1738 10.4554 12.0753 10.2781 12.4496 10.0417C13.1981 9.58864 14.5968 8.6825 15.2862 8.26883C15.5029 8.13094 15.7787 8.11124 15.9954 8.22943C16.6651 8.60371 18.1425 9.47045 18.8911 9.92352C19.1669 10.1008 19.3244 10.2584 18.9699 10.4751C18.2804 10.8888 16.9212 11.7161 16.212 12.1889C15.9166 12.445 15.5226 12.445 15.2271 12.248Z" fill="white"/>
<path fill-rule="evenodd" clip-rule="evenodd" d="M19.3245 15.4589C18.5956 15.0255 17.3546 14.336 16.6651 13.9027C16.2909 13.6663 16.3499 13.489 16.7045 13.2723C17.4137 12.8192 18.6744 11.9919 19.3836 11.5979C19.6593 11.4009 20.0139 11.4009 20.2897 11.5782C20.9594 11.9722 22.2399 12.701 22.9884 13.1541C23.4415 13.4496 23.3627 13.6466 23.1066 13.8042C22.4172 14.2178 21.1761 15.0058 20.467 15.4589C20.1518 15.6559 19.8957 15.7937 19.3245 15.4589Z" fill="white"/>
<path fill-rule="evenodd" clip-rule="evenodd" d="M24.6431 13.1344C23.9143 12.701 22.5747 11.8934 21.7868 11.4403C21.3928 11.2236 21.3337 10.9873 21.7671 10.7115C22.5353 10.2387 23.8749 9.43106 24.584 8.97798C24.8598 8.7613 25.2341 8.7416 25.5296 8.93859C26.2387 9.35226 27.5979 10.1796 28.4056 10.6524C28.7404 10.8494 28.8586 11.1251 28.5041 11.3418C27.7555 11.7949 26.4357 12.6222 25.6674 13.0753C25.175 13.3905 24.9386 13.3117 24.6431 13.1344Z" fill="white"/>
<path fill-rule="evenodd" clip-rule="evenodd" d="M30.0603 10.9085C29.2526 10.416 27.7752 9.52954 26.8888 8.97798C26.3766 8.6628 26.2387 8.44611 26.8494 8.09154C27.7555 7.53997 29.2723 6.57474 30.0603 6.06257C30.3754 5.84588 30.7891 5.84588 31.1043 6.06257C31.9513 6.57474 33.5863 7.53997 34.4531 8.11124C34.6501 8.24913 34.7092 8.52491 34.591 8.7219C34.5713 8.76129 34.5319 8.80069 34.4925 8.84009C33.6454 9.35226 32.0892 10.3766 31.2225 10.8888C30.8679 11.0857 30.4345 11.1054 30.0603 10.9085Z" fill="white"/>
<path fill-rule="evenodd" clip-rule="evenodd" d="M19.5214 9.15527C18.9305 8.76129 17.7682 8.11124 17.1182 7.75666C16.8424 7.59907 16.7833 7.44148 17.1182 7.22479C17.7485 6.81112 18.9108 6.12167 19.5017 5.74739C19.6987 5.5701 19.9942 5.5504 20.2109 5.72769C20.8018 6.06257 21.9641 6.73233 22.6338 7.1263C23.0081 7.34299 22.9293 7.53997 22.6535 7.71726C22.0232 8.09154 20.9003 8.76129 20.3291 9.15527C20.073 9.31286 19.7578 9.31286 19.5214 9.15527Z" fill="white"/>
<path fill-rule="evenodd" clip-rule="evenodd" d="M23.7567 6.37776C23.1657 6.06258 21.9838 5.37312 21.3928 5.01854C21.1367 4.86095 21.1564 4.70336 21.3731 4.58517C21.9641 4.25029 23.0869 3.52144 23.6779 3.16686C24.0127 2.95018 24.0127 2.89108 24.4658 3.18656C25.0568 3.56084 26.1796 4.1715 26.7509 4.50638C27.0266 4.66397 26.9872 4.80186 26.7509 4.93975C26.1796 5.29433 25.1159 5.98378 24.5052 6.31866C24.1506 6.51565 24.0127 6.51565 23.7567 6.37776Z" fill="white"/>
<path fill-rule="evenodd" clip-rule="evenodd" d="M0.393972 6.96871V10.1402C0.374273 10.2387 0.43337 10.3569 0.531863 10.3963C0.984934 10.6721 2.60023 11.5979 3.32908 11.9919C3.62456 12.1495 3.68366 12.0904 3.68366 11.9328V8.84009C3.68366 8.6628 3.58517 8.48552 3.40788 8.42642C2.73812 8.07184 1.02433 7.1263 0.531863 6.88992C0.453068 6.83082 0.393972 6.87022 0.393972 6.96871Z" fill="white"/>
<path fill-rule="evenodd" clip-rule="evenodd" d="M3.56547 13.5481C4.17614 13.8436 5.79143 14.7497 6.38239 15.0846C6.53998 15.1634 6.61878 15.3407 6.57938 15.4983C6.57938 16.1286 6.50058 17.606 6.50058 18.3152C6.50058 18.5122 6.48089 18.6895 6.1854 18.5319C5.53535 18.197 4.03824 17.3696 3.46698 17.0545C3.30939 16.9757 3.2109 16.7984 3.2503 16.6211C3.2503 15.971 3.32909 14.3951 3.32909 13.7451C3.32909 13.6663 3.36849 13.4496 3.56547 13.5481Z" fill="white"/>
<path fill-rule="evenodd" clip-rule="evenodd" d="M7.24913 10.1993C7.84009 10.5145 9.61298 11.4994 10.3024 11.8737C10.5585 12.0116 10.5585 12.0904 10.5585 12.2283C10.5585 12.898 10.46 14.927 10.46 15.5968C10.46 15.6953 10.4403 15.8134 10.2433 15.6953C9.59328 15.3604 7.7613 14.3163 7.15064 13.9815C7.01274 13.9224 6.93395 13.7845 6.95365 13.6269C6.95365 12.9374 7.05214 10.8888 7.05214 10.2584C7.07184 10.1796 7.09154 10.1008 7.24913 10.1993Z" fill="white"/>
<path fill-rule="evenodd" clip-rule="evenodd" d="M7.42641 20.029C8.05677 20.4229 9.35689 21.1715 9.88875 21.4867C10.0463 21.5852 10.1448 21.7625 10.1251 21.9397C10.1251 22.5701 10.0463 23.9884 10.0463 24.737C10.0463 25.0127 9.96755 25.1703 9.71147 25.0127C9.1205 24.6582 7.85979 23.9293 7.26882 23.5747C6.97334 23.3974 6.97334 23.2399 6.97334 22.9444C6.97334 22.2352 7.05214 20.8366 7.05214 20.1866C7.03244 19.9502 7.05214 19.7926 7.42641 20.029Z" fill="white"/>
<path fill-rule="evenodd" clip-rule="evenodd" d="M11.051 17.2514C11.8192 17.7045 13.3754 18.5713 14.0846 18.9849C14.3801 19.1622 14.4589 19.2804 14.4589 19.5562C14.4589 20.3048 14.4589 22.0382 14.4589 22.8656C14.4589 23.1611 14.321 23.2202 14.0255 23.0823C13.2375 22.6686 11.6026 21.7822 10.9131 21.3882C10.5979 21.2109 10.5979 21.0927 10.5979 20.8366C10.5979 20.0684 10.5979 18.4137 10.5979 17.5666C10.5782 17.2908 10.5585 16.9757 11.051 17.2514Z" fill="white"/>
<path fill-rule="evenodd" clip-rule="evenodd" d="M11.3268 23.6732C11.9965 24.0869 13.336 24.9143 14.0255 25.3082C14.4392 25.5446 14.4392 25.7613 14.4392 26.0568C14.4392 26.8447 14.4392 28.3615 14.4392 29.1495C14.4392 29.445 14.2619 29.5238 14.0255 29.3859C13.3557 28.9919 12.0753 28.1842 11.3859 27.7903C11.051 27.5933 10.9328 27.4554 10.9328 27.1599C10.9328 26.4114 10.9328 24.6976 10.9328 23.9096C10.9328 23.6929 11.0313 23.4959 11.3268 23.6732Z" fill="white"/>
<path fill-rule="evenodd" clip-rule="evenodd" d="M15.1286 14.73C15.8378 15.1437 17.5122 16.1089 18.2607 16.562C18.5562 16.7393 18.6547 16.8772 18.6547 17.212C18.6547 18.0394 18.6547 19.832 18.6547 20.6199C18.6547 20.8366 18.6153 20.9745 18.3789 20.8366C17.6895 20.4623 15.8969 19.4577 15.1286 19.044C14.8331 18.8864 14.774 18.7485 14.774 18.5319C14.774 17.7636 14.774 15.8331 14.774 14.9664C14.7937 14.7103 14.8922 14.5921 15.1286 14.73Z" fill="white"/>
<path fill-rule="evenodd" clip-rule="evenodd" d="M15.8575 20.6002C16.6257 20.9942 18.3198 21.9594 19.1472 22.3731C19.4426 22.511 19.6199 22.8262 19.5805 23.1414C19.5805 23.9687 19.5805 25.584 19.5805 26.4114C19.5805 26.8053 19.5017 26.9038 19.1275 26.7068C18.3001 26.2538 16.5469 25.3082 15.8181 24.9143C15.5423 24.7567 15.5029 24.6188 15.5029 24.3036C15.5029 23.4762 15.4832 21.6837 15.5029 20.8366C15.5029 20.5214 15.5423 20.4229 15.8575 20.6002Z" fill="white"/>
<path fill-rule="evenodd" clip-rule="evenodd" d="M16.4484 26.5886C17.2955 27.0811 19.1078 28.2039 19.9548 28.7161C20.2503 28.8934 20.3291 29.1101 20.3094 29.445C20.3094 30.3905 20.2897 32.4786 20.2897 33.4044C20.2897 33.6605 20.2306 33.8181 19.8169 33.5817C18.9108 33.0695 16.9212 31.927 16.1726 31.4739C15.8575 31.2769 15.8575 31.1193 15.8575 30.8042C15.8575 29.7995 15.8575 27.7509 15.8575 26.8447C15.8575 26.4508 16.1332 26.4311 16.4484 26.5886Z" fill="white"/>
<path fill-rule="evenodd" clip-rule="evenodd" d="M21.1958 17.212C22.0232 16.7393 23.8158 15.6362 24.7022 15.0846C24.9386 14.927 25.2144 14.8876 25.2144 15.4786C25.2341 16.4241 25.2932 18.197 25.3129 19.1819C25.3523 19.5759 25.1356 19.9502 24.781 20.1078C23.9142 20.6002 22.2202 21.5852 21.314 22.0579C20.9003 22.2746 20.7428 22.1761 20.7428 21.8413V18C20.7625 17.5075 20.92 17.3696 21.1958 17.212Z" fill="white"/>
<path fill-rule="evenodd" clip-rule="evenodd" d="M21.2549 22.905C22.1611 22.3534 24.0718 21.1715 24.9189 20.6593C25.0765 20.5608 25.3326 20.4623 25.3326 20.8957V25.0718C25.3523 25.387 25.175 25.6628 24.8992 25.8007C24.0521 26.2538 22.2399 27.3175 21.314 27.81C20.7822 28.0857 20.7625 27.9085 20.7625 27.5145C20.7625 26.5098 20.7428 24.54 20.7625 23.6535C20.7822 23.358 20.8413 23.1611 21.2549 22.905Z" fill="white"/>
<path fill-rule="evenodd" clip-rule="evenodd" d="M21.2943 28.6176C22.1611 28.0267 23.9536 26.9629 24.8204 26.4311C25.1553 26.2341 25.3326 26.2144 25.3326 26.628V30.8042C25.372 31.0997 25.1947 31.3951 24.9189 31.533C24.1112 31.9861 22.358 32.9907 21.3928 33.5226C20.9791 33.759 20.7625 33.8772 20.7625 33.365V29.4647C20.7625 29.1298 20.7821 28.9722 21.2943 28.6176Z" fill="white"/>
<path fill-rule="evenodd" clip-rule="evenodd" d="M26.2781 14.2572C27.066 13.7451 28.7207 12.7601 29.6466 12.2283C30.0997 11.9525 30.2769 12.0313 30.2769 12.4056C30.2769 13.4102 30.3557 15.518 30.3754 16.4438C30.3754 16.6999 30.3163 16.8969 29.9224 17.153C29.095 17.6848 27.2433 18.6501 26.3372 19.1622C26.0023 19.3592 25.8053 19.2804 25.8053 18.8864V15.0058C25.8053 14.7694 25.8447 14.5133 26.2781 14.2572Z" fill="white"/>
<path fill-rule="evenodd" clip-rule="evenodd" d="M26.1599 20.0684C26.9479 19.5562 28.8783 18.4137 29.8239 17.803C30.1784 17.5666 30.3754 17.606 30.3754 17.9606V22.2155C30.3951 22.4519 30.2572 22.6883 30.0209 22.8065C29.2132 23.2596 27.2236 24.3824 26.2978 24.9142C25.9432 25.1112 25.8053 25.1309 25.8053 24.737V20.6199C25.8053 20.4032 25.8644 20.2457 26.1599 20.0684Z" fill="white"/>
<path fill-rule="evenodd" clip-rule="evenodd" d="M26.1599 25.8007C26.9873 25.2688 29.095 23.9884 29.9618 23.4565C30.2375 23.2793 30.3557 23.3975 30.3557 23.6338V28.0266C30.3557 28.263 30.2178 28.4797 30.0012 28.5782C29.1541 29.0707 27.0266 30.292 26.1599 30.7451C25.9235 30.8633 25.8053 30.8042 25.8053 30.4693V26.3917C25.8053 26.1356 25.8841 25.978 26.1599 25.8007Z" fill="white"/>
<path fill-rule="evenodd" clip-rule="evenodd" d="M31.0452 11.5388C31.8331 11.0267 33.9015 9.78563 34.7683 9.27346C34.9455 9.15527 35.1622 9.13557 35.1622 9.43105C35.1622 10.3766 35.2607 12.7601 35.2607 13.686C35.2607 14.0603 35.2016 14.0997 34.9258 14.2572C34.0985 14.73 31.9907 15.9119 31.1043 16.4044C30.8088 16.562 30.7103 16.5226 30.7103 16.1483V12.0707C30.73 11.854 30.7497 11.7358 31.0452 11.5388Z" fill="white"/>
<path fill-rule="evenodd" clip-rule="evenodd" d="M31.1634 17.1924C31.971 16.6014 33.8621 15.518 34.7682 14.9664C35.0834 14.7694 35.3001 14.7694 35.3001 15.2028C35.3001 16.1286 35.2804 18 35.3001 19.044C35.3198 19.7138 35.1031 19.9108 34.8667 20.0487C34.0788 20.5017 32.3847 21.4473 31.4392 21.9791C31.0058 22.2155 30.7497 22.4125 30.73 21.6837C30.7103 20.7578 30.73 19.1228 30.73 18.2758C30.73 17.7833 30.7694 17.4878 31.1634 17.1924Z" fill="white"/>
<path fill-rule="evenodd" clip-rule="evenodd" d="M31.2028 22.8459C31.7543 22.4913 33.9606 21.2109 34.9258 20.6199C35.0834 20.5214 35.3001 20.6199 35.3001 20.7381V24.9536C35.3001 25.4067 35.1031 25.6431 34.9652 25.7219C34.1379 26.1947 32.168 27.2781 31.3013 27.7706C30.9467 27.9676 30.7103 27.7312 30.7103 27.5539C30.7103 26.5689 30.7103 24.146 30.7103 23.6732C30.7103 23.3384 30.8876 23.0035 31.2028 22.8459Z" fill="white"/>
</svg>
