<svg width="244" height="244" viewBox="0 0 244 244" fill="none" xmlns="http://www.w3.org/2000/svg">
<path d="M40.8412 49.7476C39.9795 48.2157 38.3519 47.3062 36.5807 47.3062H5.8475C2.0657 47.3062 -0.279982 51.4231 1.63486 54.6783L85.1697 197.765C87.0846 201.02 91.7759 201.02 93.6429 197.717L116.094 158.367C116.812 157.122 116.956 155.638 116.429 154.298L104.988 122.559C103.6 118.73 98.43 118.155 96.2279 121.602L93.3557 126.198C91.393 129.309 86.7973 129.213 84.9782 126.054L40.8412 49.7476Z" fill="white"/>
<path d="M115.471 82.2525C114.609 80.7206 112.982 79.811 111.211 79.811H80.4295C76.6477 79.811 74.302 83.9279 76.2169 87.1832L140.986 197.765C142.901 201.02 147.593 200.972 149.46 197.717L176.554 150.229C177.464 148.65 177.416 146.687 176.411 145.155L161.044 121.219C159.129 118.251 154.821 118.204 152.858 121.124L149.22 126.533C147.21 129.549 142.71 129.405 140.891 126.246L115.471 82.2525Z" fill="white"/>
<path d="M169.518 195.324C216.097 155.304 184.215 109.826 161.093 91.3001C161.093 91.3001 144.913 74.9761 126.53 66.4071C116.86 61.8594 101.159 56.8808 88.5208 53.2426C85.457 52.3331 86.0793 47.546 89.2867 47.4981C99.1481 47.4024 110.733 47.3545 119.924 47.3066C139.168 47.2588 164.061 50.8491 182.396 68.0348C200.682 85.1726 202.741 89.098 208.055 99.2466L208.102 99.3424C239.793 164.974 201.784 192.308 171.577 199.967C168.8 200.637 167.412 197.143 169.518 195.324Z" fill="white"/>
<path d="M118.344 47.3066C118.152 47.3066 118.104 47.5938 118.296 47.6417C124.184 49.3651 152.093 57.7425 168.465 65.4019C186.799 73.9708 211.165 91.2522 211.261 91.3001C214.277 93.6936 217.389 96.5659 220.5 99.8211C222.463 101.88 225.862 101.832 227.633 99.5339L241.276 82.061C242.665 80.2897 242.521 77.7526 240.941 76.1728C238.596 73.8271 235.819 71.1464 232.516 68.0826C214.181 50.8491 189.288 47.2588 170.044 47.3066C149.891 47.3545 118.344 47.3066 118.344 47.3066Z" fill="white"/>
<path d="M149.414 126.246C147.594 129.405 143.142 129.549 141.084 126.533L137.446 121.123C135.483 118.203 131.175 118.251 129.26 121.219L113.893 145.203C112.888 146.734 112.84 148.697 113.75 150.277L140.845 197.765C142.712 201.02 147.403 201.068 149.318 197.813L183.019 140.224C179.381 126.294 170.86 113.799 161.956 104.464L149.414 126.246Z" fill="white"/>
</svg>
