<svg width="37" height="37" viewBox="0 0 37 37" fill="none" xmlns="http://www.w3.org/2000/svg">
<rect x="1" y="1" width="35" height="35" rx="17.5" fill="white" stroke="#E6EFFB" stroke-width="2"/>
<g clip-path="url(#clip0_2580_509)">
<path fill-rule="evenodd" clip-rule="evenodd" d="M8.97802 9.28174C9.23619 9.11393 9.73962 8.7525 9.95906 8.61051C10.0107 8.57178 10.101 8.55888 10.1527 8.5976C10.385 8.73959 10.953 9.11393 11.2241 9.28174C11.3532 9.35919 11.2886 9.41083 11.2241 9.46246C10.9788 9.60445 10.4754 9.92716 10.2172 10.0562C10.0623 10.1337 10.0107 10.1079 9.94615 10.0692C9.7138 9.92716 9.21037 9.61736 8.97802 9.46246C8.87476 9.41083 8.84894 9.35919 8.97802 9.28174Z" fill="#D8EFFE"/>
<path fill-rule="evenodd" clip-rule="evenodd" d="M11.9973 11.8788C12.3845 11.6206 13.0816 11.1301 13.4172 10.8978C13.5205 10.7945 13.6883 10.7945 13.7915 10.8978C14.153 11.143 14.9533 11.6335 15.3405 11.9046C15.4438 11.9821 15.4954 12.0982 15.3664 12.1886C15.0178 12.4209 14.2433 12.834 13.8561 13.0793C13.6237 13.2213 13.5205 13.1825 13.3914 13.0922C13.0429 12.8727 12.3716 12.4597 12.0102 12.2144C11.8166 12.0853 11.752 12.0337 11.9973 11.8788Z" fill="#9BD8FD"/>
<path fill-rule="evenodd" clip-rule="evenodd" d="M15.3556 10.2632C15.6913 10.0437 16.1818 9.72102 16.4399 9.5403C16.5432 9.43704 16.6981 9.42413 16.8143 9.48867C17.1241 9.6952 17.7953 10.1212 18.1051 10.3277C18.1826 10.3793 18.2471 10.4697 18.0664 10.5601C17.7566 10.7408 17.1886 11.0635 16.8788 11.2442C16.6594 11.3733 16.569 11.3346 16.4141 11.2184C16.1301 11.0248 15.6525 10.7279 15.3686 10.5601C15.1749 10.4568 15.1878 10.3664 15.3556 10.2632Z" fill="#01AFF6"/>
<path fill-rule="evenodd" clip-rule="evenodd" d="M16.4768 15.5549C16.0251 15.2709 15.1604 14.7934 14.6957 14.5094C14.4763 14.3804 14.4118 14.2642 14.657 14.1093C15.1474 13.8125 16.0638 13.2188 16.5155 12.9478C16.6575 12.8574 16.8382 12.8445 16.9802 12.9219C17.419 13.1672 18.387 13.735 18.8774 14.0319C19.0581 14.1481 19.1614 14.2513 18.929 14.3933C18.4773 14.6643 17.5868 15.2064 17.1221 15.5161C16.9285 15.6839 16.6704 15.6839 16.4768 15.5549Z" fill="#277AC6"/>
<path fill-rule="evenodd" clip-rule="evenodd" d="M19.1614 17.6596C18.6839 17.3757 17.8708 16.924 17.4191 16.64C17.1738 16.4851 17.2126 16.369 17.4449 16.227C17.9095 15.9302 18.7355 15.3881 19.2001 15.13C19.3808 15.0009 19.6132 15.0009 19.7938 15.117C20.2327 15.3752 21.0716 15.8527 21.562 16.1496C21.8589 16.3432 21.8073 16.4722 21.6395 16.5755C21.1877 16.8465 20.3746 17.3628 19.91 17.6596C19.7035 17.7887 19.5357 17.879 19.1614 17.6596Z" fill="#277AC6"/>
<path fill-rule="evenodd" clip-rule="evenodd" d="M22.6461 16.1352C22.1685 15.8513 21.2909 15.3221 20.7746 15.0252C20.5165 14.8833 20.4778 14.7284 20.7617 14.5477C21.2651 14.238 22.1427 13.7088 22.6074 13.4119C22.788 13.27 23.0333 13.2571 23.2269 13.3861C23.6915 13.6572 24.582 14.1992 25.1112 14.509C25.3306 14.6381 25.4081 14.8187 25.1757 14.9607C24.6853 15.2576 23.8206 15.7996 23.3172 16.0965C22.9946 16.303 22.8397 16.2514 22.6461 16.1352Z" fill="#12224A"/>
<path fill-rule="evenodd" clip-rule="evenodd" d="M26.1965 14.6799C25.6674 14.3572 24.6994 13.7764 24.1186 13.4151C23.783 13.2086 23.6927 13.0666 24.0928 12.8343C24.6865 12.4729 25.6803 11.8405 26.1965 11.5049C26.4031 11.3629 26.6741 11.3629 26.8806 11.5049C27.4356 11.8405 28.5068 12.4729 29.0747 12.8472C29.2037 12.9375 29.2425 13.1182 29.165 13.2473C29.1521 13.2731 29.1263 13.2989 29.1005 13.3247C28.5455 13.6603 27.5259 14.3314 26.958 14.667C26.7257 14.7961 26.4418 14.809 26.1965 14.6799Z" fill="#01AFF6"/>
<path fill-rule="evenodd" clip-rule="evenodd" d="M19.2894 13.5298C18.9022 13.2717 18.1408 12.8458 17.7148 12.6134C17.5341 12.5102 17.4954 12.4069 17.7148 12.265C18.1278 11.9939 18.8893 11.5422 19.2765 11.297C19.4056 11.1808 19.5992 11.1679 19.7412 11.2841C20.1283 11.5035 20.8898 11.9423 21.3286 12.2004C21.5739 12.3424 21.5222 12.4715 21.3416 12.5876C20.9285 12.8328 20.1929 13.2717 19.8186 13.5298C19.6508 13.633 19.4443 13.633 19.2894 13.5298Z" fill="#6C3298"/>
<path fill-rule="evenodd" clip-rule="evenodd" d="M22.0642 11.7119C21.677 11.5054 20.9025 11.0536 20.5152 10.8213C20.3474 10.718 20.3603 10.6147 20.5023 10.5373C20.8895 10.3178 21.6253 9.84022 22.0126 9.60787C22.232 9.46588 22.232 9.42715 22.5289 9.62078C22.9162 9.86604 23.6519 10.2662 24.0263 10.4856C24.207 10.5889 24.1812 10.6793 24.0263 10.7696C23.6519 11.002 22.9549 11.4538 22.5547 11.6732C22.3224 11.8023 22.232 11.8023 22.0642 11.7119Z" fill="#277AC6"/>
<path fill-rule="evenodd" clip-rule="evenodd" d="M6.75821 12.0973V14.1755C6.7453 14.2401 6.78403 14.3175 6.84857 14.3433C7.14546 14.524 8.20394 15.1307 8.68155 15.3889C8.87518 15.4922 8.9139 15.4534 8.9139 15.3502V13.3236C8.9139 13.2074 8.84936 13.0912 8.73319 13.0525C8.2943 12.8201 7.17128 12.2005 6.84857 12.0456C6.79694 12.0069 6.75821 12.0327 6.75821 12.0973Z" fill="#D8EFFE"/>
<path fill-rule="evenodd" clip-rule="evenodd" d="M8.83723 16.4071C9.23738 16.6008 10.2959 17.1945 10.6831 17.414C10.7864 17.4656 10.838 17.5818 10.8122 17.6851C10.8122 18.0981 10.7606 19.0663 10.7606 19.531C10.7606 19.66 10.7477 19.7762 10.554 19.6729C10.1281 19.4535 9.14703 18.9114 8.77268 18.7048C8.66942 18.6532 8.60488 18.537 8.63069 18.4208C8.63069 17.9949 8.68233 16.9622 8.68233 16.5362C8.68233 16.4846 8.70814 16.3426 8.83723 16.4071Z" fill="#CCE9FE"/>
<path fill-rule="evenodd" clip-rule="evenodd" d="M11.2503 14.2137C11.6375 14.4202 12.7993 15.0657 13.2511 15.3109C13.4189 15.4013 13.4189 15.4529 13.4189 15.5433C13.4189 15.9822 13.3543 17.3117 13.3543 17.7506C13.3543 17.8151 13.3414 17.8926 13.2123 17.8151C12.7864 17.5957 11.5859 16.9116 11.1857 16.6921C11.0954 16.6534 11.0437 16.563 11.0567 16.4598C11.0567 16.008 11.1212 14.6655 11.1212 14.2524C11.1341 14.2008 11.147 14.1492 11.2503 14.2137Z" fill="#CCF4FE"/>
<path fill-rule="evenodd" clip-rule="evenodd" d="M11.3653 20.6547C11.7783 20.9129 12.6303 21.4034 12.9788 21.61C13.0821 21.6745 13.1466 21.7907 13.1337 21.9069C13.1337 22.3199 13.0821 23.2493 13.0821 23.7398C13.0821 23.9206 13.0304 24.0238 12.8626 23.9206C12.4754 23.6882 11.6492 23.2106 11.262 22.9783C11.0684 22.8621 11.0684 22.7588 11.0684 22.5652C11.0684 22.1005 11.12 21.184 11.12 20.758C11.1071 20.6031 11.12 20.4998 11.3653 20.6547Z" fill="#9BD8FD"/>
<path fill-rule="evenodd" clip-rule="evenodd" d="M13.7414 18.8354C14.2447 19.1323 15.2643 19.7002 15.729 19.9712C15.9226 20.0874 15.9742 20.1648 15.9742 20.3455C15.9742 20.8359 15.9742 21.9717 15.9742 22.5138C15.9742 22.7074 15.8838 22.7461 15.6902 22.6558C15.174 22.3847 14.1027 21.8039 13.651 21.5458C13.4445 21.4296 13.4445 21.3522 13.4445 21.1844C13.4445 20.6811 13.4445 19.5969 13.4445 19.0419C13.4316 18.8613 13.4187 18.6548 13.7414 18.8354Z" fill="#0F8EC2"/>
<path fill-rule="evenodd" clip-rule="evenodd" d="M13.9222 23.0411C14.361 23.3122 15.2386 23.8542 15.6904 24.1124C15.9614 24.2672 15.9614 24.4092 15.9614 24.6028C15.9614 25.1191 15.9614 26.1129 15.9614 26.6291C15.9614 26.8227 15.8453 26.8743 15.6904 26.784C15.2516 26.5259 14.4126 25.9967 13.9609 25.7386C13.7415 25.6095 13.6641 25.5192 13.6641 25.3256C13.6641 24.8351 13.6641 23.7123 13.6641 23.196C13.6641 23.054 13.7286 22.925 13.9222 23.0411Z" fill="#277AC6"/>
<path fill-rule="evenodd" clip-rule="evenodd" d="M16.414 17.1827C16.8786 17.4537 17.9756 18.0861 18.4661 18.383C18.6597 18.4991 18.7242 18.5895 18.7242 18.8089C18.7242 19.351 18.7242 20.5255 18.7242 21.0417C18.7242 21.1837 18.6984 21.274 18.5435 21.1837C18.0918 20.9385 16.9173 20.2802 16.414 20.0092C16.2204 19.9059 16.1816 19.8156 16.1816 19.6736C16.1816 19.1703 16.1816 17.9055 16.1816 17.3376C16.1945 17.1698 16.2591 17.0923 16.414 17.1827Z" fill="#0D2C67"/>
<path fill-rule="evenodd" clip-rule="evenodd" d="M16.8904 21.03C17.3937 21.2881 18.5037 21.9206 19.0458 22.1916C19.2394 22.2819 19.3555 22.4884 19.3297 22.6949C19.3297 23.237 19.3297 24.2953 19.3297 24.8374C19.3297 25.0955 19.2781 25.1601 19.0329 25.031C18.4908 24.7342 17.3421 24.1147 16.8646 23.8565C16.6839 23.7533 16.6581 23.6629 16.6581 23.4564C16.6581 22.9144 16.6452 21.7399 16.6581 21.1849C16.6581 20.9784 16.6839 20.9139 16.8904 21.03Z" fill="#277AC6"/>
<path fill-rule="evenodd" clip-rule="evenodd" d="M17.2759 24.951C17.8308 25.2737 19.0182 26.0093 19.5732 26.3449C19.7668 26.461 19.8184 26.603 19.8055 26.8224C19.8055 27.4419 19.7926 28.81 19.7926 29.4166C19.7926 29.5844 19.7539 29.6877 19.4829 29.5328C18.8892 29.1972 17.5856 28.4486 17.0952 28.1518C16.8887 28.0227 16.8887 27.9195 16.8887 27.713C16.8887 27.0547 16.8887 25.7125 16.8887 25.1188C16.8887 24.8606 17.0694 24.8477 17.2759 24.951Z" fill="#33104D"/>
<path fill-rule="evenodd" clip-rule="evenodd" d="M20.3867 18.8074C20.9288 18.4976 22.1032 17.7748 22.684 17.4135C22.8389 17.3102 23.0196 17.2844 23.0196 17.6716C23.0325 18.2911 23.0712 19.4527 23.0841 20.098C23.11 20.3561 22.968 20.6014 22.7357 20.7046C22.1678 21.0273 21.0578 21.6726 20.4641 21.9823C20.1931 22.1243 20.0898 22.0598 20.0898 21.8404V19.3236C20.1028 19.001 20.206 18.9106 20.3867 18.8074Z" fill="#5A0040"/>
<path fill-rule="evenodd" clip-rule="evenodd" d="M20.4261 22.5386C21.0198 22.1772 22.2717 21.4028 22.8267 21.0673C22.9299 21.0027 23.0977 20.9382 23.0977 21.2221V23.9583C23.1106 24.1648 22.9944 24.3455 22.8137 24.4358C22.2588 24.7327 21.0714 25.4296 20.4648 25.7523C20.1163 25.933 20.1034 25.8168 20.1034 25.5587C20.1034 24.9005 20.0905 23.6098 20.1034 23.029C20.1163 22.8354 20.155 22.7064 20.4261 22.5386Z" fill="#D4008B"/>
<path fill-rule="evenodd" clip-rule="evenodd" d="M20.45 26.2831C21.0179 25.8959 22.1924 25.1989 22.7603 24.8505C22.9797 24.7214 23.0959 24.7085 23.0959 24.9795V27.7157C23.1217 27.9093 23.0055 28.1029 22.8248 28.1932C22.2957 28.4901 21.147 29.1483 20.5146 29.4968C20.2435 29.6517 20.1016 29.7291 20.1016 29.3935V26.838C20.1016 26.6186 20.1145 26.5154 20.45 26.2831Z" fill="#8D0265"/>
<path fill-rule="evenodd" clip-rule="evenodd" d="M23.716 16.8708C24.2323 16.5352 25.3164 15.8899 25.923 15.5414C26.2199 15.3607 26.336 15.4123 26.336 15.6576C26.336 16.3158 26.3876 17.6968 26.4005 18.3034C26.4005 18.4712 26.3618 18.6002 26.1037 18.768C25.5616 19.1165 24.3484 19.7489 23.7547 20.0845C23.5353 20.2135 23.4062 20.1619 23.4062 19.9038V17.3612C23.4062 17.2063 23.4321 17.0385 23.716 16.8708Z" fill="#D4008B"/>
<path fill-rule="evenodd" clip-rule="evenodd" d="M23.6386 20.6795C24.1548 20.344 25.4197 19.5954 26.0392 19.1953C26.2715 19.0404 26.4005 19.0662 26.4005 19.2985V22.0863C26.4135 22.2412 26.3231 22.3961 26.1682 22.4735C25.6391 22.7704 24.3355 23.506 23.7289 23.8545C23.4966 23.9836 23.4062 23.9965 23.4062 23.7383V21.0409C23.4062 20.8989 23.445 20.7957 23.6386 20.6795Z" fill="#E58401"/>
<path fill-rule="evenodd" clip-rule="evenodd" d="M23.6386 24.4355C24.1806 24.0871 25.5616 23.2482 26.1295 22.8997C26.3102 22.7835 26.3876 22.861 26.3876 23.0158V25.894C26.3876 26.0489 26.2973 26.1908 26.1553 26.2554C25.6003 26.578 24.2065 27.3782 23.6386 27.6751C23.4837 27.7525 23.4062 27.7138 23.4062 27.4944V24.8227C23.4062 24.655 23.4579 24.5517 23.6386 24.4355Z" fill="#F0B300"/>
<path fill-rule="evenodd" clip-rule="evenodd" d="M26.8405 15.0919C27.3568 14.7563 28.7119 13.9432 29.2798 13.6076C29.396 13.5302 29.538 13.5173 29.538 13.7109C29.538 14.3304 29.6025 15.8921 29.6025 16.4987C29.6025 16.7439 29.5638 16.7697 29.3831 16.8729C28.841 17.1827 27.46 17.9571 26.8792 18.2797C26.6856 18.383 26.6211 18.3572 26.6211 18.112V15.4403C26.634 15.2984 26.6469 15.2209 26.8405 15.0919Z" fill="#FDDC00"/>
<path fill-rule="evenodd" clip-rule="evenodd" d="M26.9166 18.7954C27.4458 18.4082 28.6848 17.6983 29.2785 17.3369C29.485 17.2079 29.627 17.2079 29.627 17.4918C29.627 18.0984 29.6141 19.3245 29.627 20.0086C29.6399 20.4474 29.4979 20.5764 29.343 20.6668C28.8268 20.9636 27.7168 21.5831 27.0973 21.9316C26.8134 22.0865 26.6456 22.2156 26.6327 21.738C26.6198 21.1314 26.6327 20.0602 26.6327 19.5052C26.6327 19.1825 26.6585 18.9889 26.9166 18.7954Z" fill="#F0B300"/>
<path fill-rule="evenodd" clip-rule="evenodd" d="M26.9438 22.5005C27.3051 22.2682 28.7507 21.4292 29.3831 21.042C29.4863 20.9775 29.6283 21.042 29.6283 21.1195V23.8815C29.6283 24.1783 29.4992 24.3332 29.4089 24.3848C28.8668 24.6946 27.5762 25.4044 27.0083 25.7271C26.776 25.8561 26.6211 25.7013 26.6211 25.5851C26.6211 24.9398 26.6211 23.3523 26.6211 23.0425C26.6211 22.8231 26.7373 22.6037 26.9438 22.5005Z" fill="#E58401"/>
</g>
<defs>
<clipPath id="clip0_2580_509">
<rect width="23.5869" height="22.2765" fill="white" transform="translate(6.5 8)"/>
</clipPath>
</defs>
</svg>
