<svg width="270" height="34" viewBox="0 0 270 34" fill="none" xmlns="http://www.w3.org/2000/svg">
<path fill-rule="evenodd" clip-rule="evenodd" d="M3.78216 1.67439C4.17613 1.41831 4.94438 0.866744 5.27926 0.650058C5.35805 0.590962 5.49594 0.571263 5.57474 0.630359C5.92932 0.847045 6.79606 1.41831 7.20973 1.67439C7.40672 1.79258 7.30823 1.87138 7.20973 1.95017C6.83546 2.16686 6.06721 2.65933 5.67323 2.85632C5.43685 2.97451 5.35805 2.93511 5.25956 2.87601C4.90498 2.65933 4.13673 2.18656 3.78216 1.95017C3.62457 1.87138 3.58517 1.79258 3.78216 1.67439Z" fill="white"/>
<path fill-rule="evenodd" clip-rule="evenodd" d="M8.39166 5.63383C8.98262 5.23986 10.0463 4.49131 10.5585 4.13673C10.7161 3.97914 10.9722 3.97914 11.1298 4.13673C11.6813 4.51101 12.9027 5.25956 13.4936 5.67323C13.6512 5.79142 13.73 5.96871 13.533 6.1066C13.0012 6.46118 11.8192 7.09154 11.2283 7.46582C10.8737 7.6825 10.7161 7.62341 10.5191 7.48551C9.98725 7.15064 8.96292 6.52028 8.41136 6.146C8.11587 5.94901 8.01738 5.87022 8.39166 5.63383Z" fill="white"/>
<path fill-rule="evenodd" clip-rule="evenodd" d="M13.5133 3.17149C14.0255 2.83662 14.774 2.34415 15.168 2.06836C15.3256 1.91078 15.562 1.89108 15.7393 1.98957C16.2121 2.30475 17.2364 2.95481 17.7092 3.26999C17.8273 3.34878 17.9258 3.48667 17.6501 3.62456C17.1773 3.90035 16.3105 4.39281 15.8378 4.6686C15.5029 4.86558 15.365 4.80649 15.1286 4.6292C14.6952 4.33372 13.9664 3.88065 13.533 3.62456C13.2375 3.46697 13.2572 3.32908 13.5133 3.17149Z" fill="white"/>
<path fill-rule="evenodd" clip-rule="evenodd" d="M15.2271 11.248C14.5377 10.8146 13.2178 10.0857 12.5087 9.65238C12.1738 9.45539 12.0753 9.2781 12.4496 9.04172C13.1981 8.58864 14.5968 7.6825 15.2862 7.26883C15.5029 7.13094 15.7787 7.11124 15.9954 7.22943C16.6651 7.60371 18.1425 8.47045 18.8911 8.92352C19.1669 9.10081 19.3245 9.2584 18.9699 9.47509C18.2804 9.88876 16.9212 10.7161 16.2121 11.1889C15.9166 11.445 15.5226 11.445 15.2271 11.248Z" fill="white"/>
<path fill-rule="evenodd" clip-rule="evenodd" d="M19.3244 14.4589C18.5956 14.0255 17.3546 13.336 16.6651 12.9027C16.2908 12.6663 16.3499 12.489 16.7045 12.2723C17.4137 11.8192 18.6744 10.9919 19.3835 10.5979C19.6593 10.4009 20.0139 10.4009 20.2897 10.5782C20.9594 10.9722 22.2399 11.701 22.9884 12.1541C23.4415 12.4496 23.3627 12.6466 23.1066 12.8042C22.4171 13.2178 21.1761 14.0058 20.467 14.4589C20.1518 14.6559 19.8957 14.7937 19.3244 14.4589Z" fill="white"/>
<path fill-rule="evenodd" clip-rule="evenodd" d="M24.6431 12.1344C23.9143 11.701 22.5747 10.8934 21.7868 10.4403C21.3928 10.2236 21.3337 9.98725 21.7671 9.71147C22.5353 9.2387 23.8749 8.43106 24.584 7.97798C24.8598 7.7613 25.2341 7.7416 25.5295 7.93859C26.2387 8.35226 27.5979 9.17961 28.4056 9.65238C28.7404 9.84936 28.8586 10.1251 28.5041 10.3418C27.7555 10.7949 26.4357 11.6222 25.6674 12.0753C25.175 12.3905 24.9386 12.3117 24.6431 12.1344Z" fill="white"/>
<path fill-rule="evenodd" clip-rule="evenodd" d="M30.0603 9.90846C29.2526 9.41599 27.7752 8.52955 26.8888 7.97798C26.3766 7.6628 26.2387 7.44612 26.8494 7.09154C27.7555 6.53998 29.2723 5.57474 30.0603 5.06257C30.3754 4.84589 30.7891 4.84589 31.1043 5.06257C31.9513 5.57474 33.5863 6.53998 34.4531 7.11124C34.6501 7.24913 34.7092 7.52491 34.591 7.7219C34.5713 7.7613 34.5319 7.8007 34.4925 7.84009C33.6454 8.35226 32.0892 9.37659 31.2225 9.88876C30.8679 10.0857 30.4345 10.1054 30.0603 9.90846Z" fill="white"/>
<path fill-rule="evenodd" clip-rule="evenodd" d="M19.5214 8.15527C18.9305 7.7613 17.7683 7.11124 17.1182 6.75666C16.8424 6.59907 16.7833 6.44148 17.1182 6.2248C17.7486 5.81112 18.9108 5.12167 19.5017 4.74739C19.6987 4.5701 19.9942 4.55041 20.2109 4.72769C20.8019 5.06257 21.9641 5.73233 22.6338 6.1263C23.0081 6.34299 22.9293 6.53998 22.6535 6.71727C22.0232 7.09154 20.9003 7.7613 20.3291 8.15527C20.073 8.31286 19.7578 8.31286 19.5214 8.15527Z" fill="white"/>
<path fill-rule="evenodd" clip-rule="evenodd" d="M23.7567 5.37775C23.1657 5.06257 21.9838 4.37312 21.3928 4.01854C21.1367 3.86095 21.1564 3.70336 21.3731 3.58517C21.9641 3.25029 23.0869 2.52144 23.6779 2.16686C24.0127 1.95017 24.0127 1.89108 24.4658 2.18656C25.0568 2.56083 26.1796 3.17149 26.7509 3.50637C27.0267 3.66396 26.9873 3.80185 26.7509 3.93974C26.1796 4.29432 25.1159 4.98378 24.5052 5.31866C24.1506 5.51564 24.0127 5.51564 23.7567 5.37775Z" fill="white"/>
<path fill-rule="evenodd" clip-rule="evenodd" d="M0.393975 5.96871V9.14021C0.374276 9.2387 0.433372 9.35689 0.531866 9.39629C0.984937 9.67207 2.60023 10.5979 3.32908 10.9919C3.62457 11.1495 3.68366 11.0904 3.68366 10.9328V7.84009C3.68366 7.6628 3.58517 7.48552 3.40788 7.42642C2.73812 7.07184 1.02433 6.1263 0.531866 5.88992C0.453071 5.83082 0.393975 5.87022 0.393975 5.96871Z" fill="white"/>
<path fill-rule="evenodd" clip-rule="evenodd" d="M3.56547 12.5481C4.17613 12.8436 5.79142 13.7497 6.38239 14.0846C6.53998 14.1634 6.61877 14.3407 6.57937 14.4983C6.57937 15.1286 6.50058 16.606 6.50058 17.3152C6.50058 17.5122 6.48088 17.6895 6.1854 17.5319C5.53534 17.197 4.03824 16.3696 3.46698 16.0545C3.30939 15.9757 3.21089 15.7984 3.25029 15.6211C3.25029 14.971 3.32908 13.3951 3.32908 12.7451C3.32908 12.6663 3.36848 12.4496 3.56547 12.5481Z" fill="white"/>
<path fill-rule="evenodd" clip-rule="evenodd" d="M7.24913 9.19931C7.84009 9.51449 9.61298 10.4994 10.3024 10.8737C10.5585 11.0116 10.5585 11.0904 10.5585 11.2283C10.5585 11.898 10.46 13.927 10.46 14.5968C10.46 14.6953 10.4403 14.8134 10.2433 14.6953C9.59328 14.3604 7.7613 13.3163 7.15064 12.9815C7.01275 12.9224 6.93395 12.7845 6.95365 12.6269C6.95365 11.9374 7.05214 9.88876 7.05214 9.2584C7.07184 9.17961 7.09154 9.10081 7.24913 9.19931Z" fill="white"/>
<path fill-rule="evenodd" clip-rule="evenodd" d="M7.42642 19.029C8.05678 19.4229 9.35689 20.1715 9.88876 20.4867C10.0463 20.5852 10.1448 20.7625 10.1251 20.9397C10.1251 21.5701 10.0463 22.9884 10.0463 23.737C10.0463 24.0127 9.96755 24.1703 9.71147 24.0127C9.12051 23.6582 7.85979 22.9293 7.26883 22.5747C6.97335 22.3974 6.97335 22.2399 6.97335 21.9444C6.97335 21.2352 7.05214 19.8366 7.05214 19.1866C7.03244 18.9502 7.05214 18.7926 7.42642 19.029Z" fill="white"/>
<path fill-rule="evenodd" clip-rule="evenodd" d="M11.051 16.2514C11.8192 16.7045 13.3754 17.5713 14.0846 17.9849C14.3801 18.1622 14.4589 18.2804 14.4589 18.5562C14.4589 19.3048 14.4589 21.0382 14.4589 21.8656C14.4589 22.1611 14.321 22.2202 14.0255 22.0823C13.2375 21.6686 11.6025 20.7822 10.9131 20.3882C10.5979 20.2109 10.5979 20.0927 10.5979 19.8366C10.5979 19.0684 10.5979 17.4137 10.5979 16.5666C10.5782 16.2908 10.5585 15.9757 11.051 16.2514Z" fill="white"/>
<path fill-rule="evenodd" clip-rule="evenodd" d="M11.3268 22.6732C11.9965 23.0869 13.336 23.9143 14.0255 24.3082C14.4392 24.5446 14.4392 24.7613 14.4392 25.0568C14.4392 25.8447 14.4392 27.3615 14.4392 28.1495C14.4392 28.445 14.2619 28.5238 14.0255 28.3859C13.3557 27.9919 12.0753 27.1842 11.3859 26.7903C11.051 26.5933 10.9328 26.4554 10.9328 26.1599C10.9328 25.4114 10.9328 23.6976 10.9328 22.9096C10.9328 22.6929 11.0313 22.4959 11.3268 22.6732Z" fill="white"/>
<path fill-rule="evenodd" clip-rule="evenodd" d="M15.1286 13.73C15.8378 14.1437 17.5122 15.1089 18.2607 15.562C18.5562 15.7393 18.6547 15.8772 18.6547 16.212C18.6547 17.0394 18.6547 18.832 18.6547 19.6199C18.6547 19.8366 18.6153 19.9745 18.3789 19.8366C17.6895 19.4623 15.8969 18.4577 15.1286 18.044C14.8331 17.8864 14.774 17.7485 14.774 17.5319C14.774 16.7636 14.774 14.8331 14.774 13.9664C14.7937 13.7103 14.8922 13.5921 15.1286 13.73Z" fill="white"/>
<path fill-rule="evenodd" clip-rule="evenodd" d="M15.8575 19.6002C16.6257 19.9942 18.3198 20.9594 19.1472 21.3731C19.4426 21.511 19.6199 21.8262 19.5805 22.1414C19.5805 22.9687 19.5805 24.584 19.5805 25.4114C19.5805 25.8053 19.5017 25.9038 19.1275 25.7068C18.3001 25.2538 16.5469 24.3082 15.8181 23.9143C15.5423 23.7567 15.5029 23.6188 15.5029 23.3036C15.5029 22.4762 15.4832 20.6837 15.5029 19.8366C15.5029 19.5214 15.5423 19.4229 15.8575 19.6002Z" fill="white"/>
<path fill-rule="evenodd" clip-rule="evenodd" d="M16.4484 25.5886C17.2955 26.0811 19.1078 27.2039 19.9548 27.7161C20.2503 27.8934 20.3291 28.1101 20.3094 28.445C20.3094 29.3905 20.2897 31.4786 20.2897 32.4044C20.2897 32.6605 20.2306 32.8181 19.8169 32.5817C18.9108 32.0695 16.9212 30.927 16.1727 30.4739C15.8575 30.2769 15.8575 30.1193 15.8575 29.8042C15.8575 28.7995 15.8575 26.7509 15.8575 25.8447C15.8575 25.4508 16.1333 25.4311 16.4484 25.5886Z" fill="white"/>
<path fill-rule="evenodd" clip-rule="evenodd" d="M21.1958 16.212C22.0232 15.7393 23.8158 14.6362 24.7022 14.0846C24.9386 13.927 25.2144 13.8876 25.2144 14.4786C25.2341 15.4241 25.2932 17.197 25.3129 18.1819C25.3523 18.5759 25.1356 18.9502 24.781 19.1078C23.9143 19.6002 22.2202 20.5852 21.314 21.0579C20.9003 21.2746 20.7428 21.1761 20.7428 20.8413V17C20.7625 16.5075 20.92 16.3696 21.1958 16.212Z" fill="white"/>
<path fill-rule="evenodd" clip-rule="evenodd" d="M21.2549 21.905C22.1611 21.3534 24.0718 20.1715 24.9189 19.6593C25.0765 19.5608 25.3326 19.4623 25.3326 19.8957V24.0718C25.3523 24.387 25.175 24.6628 24.8992 24.8007C24.0521 25.2538 22.2399 26.3175 21.314 26.81C20.7822 27.0857 20.7625 26.9085 20.7625 26.5145C20.7625 25.5098 20.7428 23.54 20.7625 22.6535C20.7822 22.358 20.8413 22.1611 21.2549 21.905Z" fill="white"/>
<path fill-rule="evenodd" clip-rule="evenodd" d="M21.2943 27.6176C22.1611 27.0267 23.9537 25.9629 24.8204 25.4311C25.1553 25.2341 25.3326 25.2144 25.3326 25.628V29.8042C25.372 30.0997 25.1947 30.3951 24.9189 30.533C24.1112 30.9861 22.3581 31.9907 21.3928 32.5226C20.9791 32.759 20.7625 32.8772 20.7625 32.365V28.4647C20.7625 28.1298 20.7822 27.9722 21.2943 27.6176Z" fill="white"/>
<path fill-rule="evenodd" clip-rule="evenodd" d="M26.2781 13.2572C27.066 12.7451 28.7207 11.7601 29.6466 11.2283C30.0997 10.9525 30.2769 11.0313 30.2769 11.4056C30.2769 12.4102 30.3557 14.518 30.3754 15.4438C30.3754 15.6999 30.3163 15.8969 29.9224 16.153C29.095 16.6848 27.2433 17.6501 26.3372 18.1622C26.0023 18.3592 25.8053 18.2804 25.8053 17.8864V14.0058C25.8053 13.7694 25.8447 13.5133 26.2781 13.2572Z" fill="white"/>
<path fill-rule="evenodd" clip-rule="evenodd" d="M26.1599 19.0684C26.9479 18.5562 28.8783 17.4137 29.8239 16.803C30.1784 16.5666 30.3754 16.606 30.3754 16.9606V21.2155C30.3951 21.4519 30.2572 21.6883 30.0209 21.8065C29.2132 22.2596 27.2236 23.3824 26.2978 23.9142C25.9432 24.1112 25.8053 24.1309 25.8053 23.737V19.6199C25.8053 19.4032 25.8644 19.2457 26.1599 19.0684Z" fill="white"/>
<path fill-rule="evenodd" clip-rule="evenodd" d="M26.1599 24.8007C26.9873 24.2688 29.095 22.9884 29.9618 22.4565C30.2375 22.2793 30.3557 22.3975 30.3557 22.6338V27.0266C30.3557 27.263 30.2178 27.4797 30.0012 27.5782C29.1541 28.0707 27.0266 29.292 26.1599 29.7451C25.9235 29.8633 25.8053 29.8042 25.8053 29.4693V25.3917C25.8053 25.1356 25.8841 24.978 26.1599 24.8007Z" fill="white"/>
<path fill-rule="evenodd" clip-rule="evenodd" d="M31.0452 10.5388C31.8331 10.0267 33.9015 8.78563 34.7683 8.27346C34.9455 8.15527 35.1622 8.13557 35.1622 8.43105C35.1622 9.37659 35.2607 11.7601 35.2607 12.686C35.2607 13.0603 35.2016 13.0997 34.9258 13.2572C34.0985 13.73 31.9907 14.9119 31.1043 15.4044C30.8088 15.562 30.7103 15.5226 30.7103 15.1483V11.0707C30.73 10.854 30.7497 10.7358 31.0452 10.5388Z" fill="white"/>
<path fill-rule="evenodd" clip-rule="evenodd" d="M31.1634 16.1924C31.971 15.6014 33.8621 14.518 34.7682 13.9664C35.0834 13.7694 35.3001 13.7694 35.3001 14.2028C35.3001 15.1286 35.2804 17 35.3001 18.044C35.3198 18.7138 35.1031 18.9108 34.8667 19.0487C34.0788 19.5017 32.3847 20.4473 31.4392 20.9791C31.0058 21.2155 30.7497 21.4125 30.73 20.6837C30.7103 19.7578 30.73 18.1228 30.73 17.2758C30.73 16.7833 30.7694 16.4878 31.1634 16.1924Z" fill="white"/>
<path fill-rule="evenodd" clip-rule="evenodd" d="M31.2028 21.8459C31.7543 21.4913 33.9606 20.2109 34.9258 19.6199C35.0834 19.5214 35.3001 19.6199 35.3001 19.7381V23.9536C35.3001 24.4067 35.1031 24.6431 34.9652 24.7219C34.1379 25.1947 32.168 26.2781 31.3013 26.7706C30.9467 26.9676 30.7103 26.7312 30.7103 26.5539C30.7103 25.5689 30.7103 23.146 30.7103 22.6732C30.7103 22.3384 30.8876 22.0035 31.2028 21.8459Z" fill="white"/>
<path d="M39.4172 26.5933C39.3384 26.4554 39.2399 26.2978 39.1611 26.1402C39.0823 25.9826 39.0232 25.825 38.9444 25.6674C37.8216 22.7126 36.7184 19.7972 35.5956 16.9015C34.4925 14.0058 33.3696 11.0904 32.2468 8.13557C32.2468 8.09617 32.2468 8.05678 32.2271 8.01738C32.2074 7.97798 32.2074 7.93858 32.2074 7.91889C32.2074 7.6825 32.365 7.56431 32.6802 7.56431H36.8563C37.1912 7.56431 37.4079 7.7219 37.5261 8.05678L41.5643 19.8957L45.248 8.05678C45.3662 7.7219 45.6025 7.56431 45.9571 7.56431H50.1727C50.3696 7.56431 50.5075 7.60371 50.5863 7.6825C50.6651 7.7613 50.7045 7.85979 50.7045 7.97798C50.7045 8.05678 50.7045 8.09617 50.6848 8.11587V8.15527L48.3998 14.774L50.1333 19.876L54.3488 8.05678C54.467 7.7219 54.7034 7.56431 55.0579 7.56431H59.1553C59.3523 7.56431 59.4901 7.60371 59.5689 7.6825C59.6477 7.7613 59.6871 7.85979 59.6871 7.97798C59.6871 8.05678 59.6871 8.09617 59.6674 8.11587V8.15527C59.0765 9.67207 58.4855 11.2086 57.8552 12.7254C57.2445 14.2422 56.6141 15.759 56.0035 17.2758C55.3928 18.7926 54.7625 20.3094 54.1518 21.8262C53.5411 23.343 52.9502 24.8598 52.3592 26.3766C52.3198 26.4751 52.241 26.5736 52.1228 26.6918C52.0046 26.81 51.847 26.8691 51.6895 26.8691H51.6501H48.4983C48.3013 26.8691 48.1634 26.8297 48.0649 26.7509C47.9664 26.6721 47.8876 26.5736 47.8482 26.4554L45.7995 21.0579C45.5041 21.8459 45.2086 22.6141 44.9328 23.3824C44.6373 24.1309 44.3615 24.9189 44.066 25.7068C44.0267 25.825 43.9676 25.9629 43.9085 26.0811C43.8494 26.219 43.7903 26.3372 43.7115 26.4554C43.6327 26.5736 43.5539 26.6721 43.4357 26.7509C43.3372 26.8297 43.219 26.8691 43.1008 26.8691H43.0614H39.9096C39.6929 26.8691 39.4959 26.7706 39.4172 26.5933Z" fill="white"/>
<path d="M62.1101 8.17497C62.1101 7.99768 62.1692 7.84009 62.2677 7.7416C62.3662 7.6431 62.5041 7.58401 62.6813 7.58401H75.584C75.781 7.58401 75.9189 7.6431 76.0174 7.7613C76.1159 7.87949 76.175 8.01738 76.175 8.21437V11.4253C76.175 11.5631 76.1159 11.7207 76.0174 11.8389C75.9189 11.9768 75.7613 12.0359 75.5643 12.0359H67.1333V15.2665H73.6338C73.7914 15.2665 73.9293 15.3059 74.0475 15.3847C74.146 15.4635 74.2051 15.6014 74.2051 15.7787V18.5956C74.2051 18.7138 74.1657 18.832 74.0672 18.9502C73.9687 19.0684 73.8308 19.1275 73.6535 19.1275H67.1333V22.4565H75.8598C76.2538 22.4565 76.4508 22.6535 76.4508 23.0475V26.3175C76.4508 26.3963 76.4114 26.4751 76.3523 26.5539C76.3129 26.7903 76.1356 26.9085 75.8204 26.9085H62.6813C62.5041 26.9085 62.3662 26.8691 62.2677 26.7706C62.1692 26.6721 62.1101 26.5342 62.1101 26.3569V8.17497Z" fill="white"/>
<path d="M79.6419 8.17497C79.6419 7.99768 79.701 7.84009 79.7995 7.7416C79.898 7.6431 80.0359 7.58401 80.2132 7.58401H88.8413C89.6095 7.58401 90.3187 7.7219 91.0081 8.01738C91.6779 8.31286 92.2688 8.70683 92.781 9.219C93.2932 9.73117 93.6871 10.3221 93.9826 10.9919C94.2781 11.6813 94.416 12.4102 94.416 13.1784C94.416 13.8285 94.3175 14.4392 94.1008 14.9907C93.9038 15.5423 93.6083 16.0545 93.2341 16.4878C93.8644 17.0591 94.3569 17.7485 94.7115 18.5365C95.066 19.3244 95.263 20.1518 95.263 21.0382C95.263 21.8262 95.1054 22.5747 94.81 23.2839C94.5145 23.993 94.1008 24.6037 93.5886 25.1356C93.0765 25.6674 92.4658 26.0811 91.7764 26.3963C91.0869 26.7115 90.3581 26.8691 89.5898 26.8691H80.1935C80.0162 26.8691 79.8783 26.8297 79.7798 26.7312C79.6813 26.6327 79.6223 26.4948 79.6223 26.3175V8.17497H79.6419ZM89.4322 13.2769C89.4322 13.0209 89.3928 12.7648 89.2943 12.5481C89.1958 12.3314 89.0579 12.1147 88.8807 11.9571C88.7034 11.7798 88.5064 11.6419 88.2503 11.5435C88.0139 11.445 87.7381 11.3859 87.4623 11.3859H84.6651V15.168H87.4229C87.7184 15.168 87.9942 15.1286 88.2306 15.0301C88.4867 14.9316 88.6837 14.8134 88.861 14.6362C89.0382 14.4589 89.1761 14.2619 89.2746 14.0452C89.3731 13.8088 89.4322 13.5724 89.4322 13.2769ZM90.1217 20.8412C90.1217 20.5852 90.0626 20.3291 89.9641 20.0533C89.8656 19.7972 89.7277 19.5608 89.5504 19.3638C89.3731 19.1669 89.1564 18.9896 88.92 18.8714C88.664 18.7335 88.4079 18.6744 88.1124 18.6744H84.6651V23.0081H88.1124C88.4079 23.0081 88.664 22.949 88.9003 22.8308C89.1367 22.7126 89.3534 22.555 89.5307 22.3384C89.708 22.1414 89.8459 21.905 89.9444 21.6489C90.0429 21.3928 90.1217 21.117 90.1217 20.8412Z" fill="white"/>
<path d="M97.9618 8.17497C97.9618 7.99768 98.0209 7.84009 98.1193 7.7416C98.2178 7.6431 98.3557 7.58401 98.533 7.58401H107.161C107.929 7.58401 108.638 7.7219 109.328 8.01738C109.998 8.31286 110.589 8.70683 111.101 9.219C111.613 9.73117 112.007 10.3221 112.302 10.9919C112.598 11.6813 112.736 12.4102 112.736 13.1784C112.736 13.8285 112.637 14.4392 112.421 14.9907C112.224 15.5423 111.928 16.0545 111.554 16.4878C112.184 17.0591 112.677 17.7485 113.031 18.5365C113.386 19.3244 113.583 20.1518 113.583 21.0382C113.583 21.8262 113.425 22.5747 113.13 23.2839C112.834 23.993 112.421 24.6037 111.908 25.1356C111.396 25.6674 110.786 26.0811 110.096 26.3963C109.407 26.7115 108.678 26.8691 107.91 26.8691H98.5133C98.336 26.8691 98.1981 26.8297 98.0996 26.7312C98.0012 26.6327 97.9421 26.4948 97.9421 26.3175V8.17497H97.9618ZM107.752 13.2769C107.752 13.0209 107.713 12.7648 107.614 12.5481C107.516 12.3314 107.378 12.1147 107.2 11.9571C107.023 11.7798 106.826 11.6419 106.57 11.5435C106.334 11.445 106.058 11.3859 105.782 11.3859H102.985V15.168H105.743C106.038 15.168 106.314 15.1286 106.55 15.0301C106.806 14.9316 107.003 14.8134 107.181 14.6362C107.358 14.4589 107.496 14.2619 107.594 14.0452C107.713 13.8088 107.752 13.5724 107.752 13.2769ZM108.441 20.8412C108.441 20.5852 108.382 20.3291 108.284 20.0533C108.185 19.7972 108.048 19.5608 107.87 19.3638C107.693 19.1669 107.476 18.9896 107.24 18.8714C106.984 18.7335 106.728 18.6744 106.432 18.6744H102.985V23.0081H106.432C106.728 23.0081 106.984 22.949 107.22 22.8308C107.457 22.7126 107.673 22.555 107.851 22.3384C108.028 22.1414 108.166 21.905 108.264 21.6489C108.363 21.3928 108.441 21.117 108.441 20.8412Z" fill="white"/>
<path d="M123.393 14.6952L126.525 7.97798C126.584 7.87949 126.623 7.80069 126.663 7.7416C126.702 7.7022 126.742 7.6628 126.761 7.6431C126.801 7.6234 126.84 7.60371 126.879 7.60371C126.919 7.60371 126.958 7.58401 127.017 7.56431H132.021C132.08 7.56431 132.139 7.58401 132.178 7.6234C132.218 7.6628 132.238 7.7022 132.238 7.7613C132.238 7.85979 132.178 7.95828 132.06 8.07647L125.875 18.9896V26.2584C125.875 26.6721 125.678 26.8691 125.284 26.8691H121.403C121.226 26.8691 121.088 26.81 121.009 26.7115C120.911 26.613 120.871 26.4554 120.871 26.2584V18.9699L114.725 8.09617C114.607 7.97798 114.548 7.87949 114.548 7.78099C114.548 7.7219 114.568 7.6825 114.607 7.6431C114.647 7.60371 114.686 7.58401 114.745 7.58401H119.749C119.808 7.60371 119.847 7.60371 119.886 7.6234C119.926 7.6234 119.965 7.6431 119.985 7.6628C120.024 7.6825 120.064 7.7219 120.083 7.7613C120.123 7.80069 120.162 7.87949 120.221 7.99768L123.393 14.6952Z" fill="white"/>
<path d="M147.189 7.56431C147.346 7.56431 147.484 7.60371 147.603 7.7022C147.721 7.80069 147.8 7.93858 147.819 8.13557V9.45539C147.819 9.63267 147.76 9.77056 147.662 9.90846C147.563 10.0266 147.406 10.1054 147.189 10.1054H141.791V26.2781C141.791 26.4357 141.732 26.5736 141.634 26.6918C141.535 26.81 141.378 26.8691 141.2 26.8691H139.881C139.723 26.8691 139.585 26.81 139.467 26.6918C139.349 26.5736 139.29 26.4357 139.29 26.2584V10.0857H133.853C133.676 10.0857 133.538 10.0266 133.419 9.92815C133.301 9.82966 133.242 9.67207 133.242 9.45539V8.13557C133.242 7.95828 133.301 7.82039 133.419 7.7219C133.538 7.6234 133.676 7.56431 133.853 7.56431H147.189Z" fill="white"/>
<path d="M163.795 7.56431C164.189 7.56431 164.386 7.78099 164.386 8.19467V9.47508C164.386 9.63267 164.327 9.79026 164.228 9.90846C164.13 10.0266 163.972 10.0857 163.755 10.0857H153.276V15.4241H161.53C161.687 15.4241 161.825 15.4635 161.924 15.562C162.042 15.6605 162.101 15.7984 162.101 16.0151V17.3349C162.101 17.4925 162.061 17.6304 161.963 17.7485C161.864 17.8667 161.727 17.9258 161.53 17.9258H153.295V24.3279H163.815C164.209 24.3279 164.406 24.5249 164.406 24.9386V26.2781C164.406 26.6524 164.209 26.8494 163.834 26.8494H151.326C150.951 26.8494 150.754 26.6721 150.754 26.2978V8.17497C150.754 7.78099 150.951 7.58401 151.326 7.58401H163.795V7.56431Z" fill="white"/>
<path d="M176.796 26.0417C176.599 26.0417 176.441 25.8841 176.284 25.5689L170.571 11.7601L169.054 26.2978C169.054 26.6721 168.857 26.8691 168.483 26.8691H167.124C166.73 26.8691 166.533 26.6721 166.533 26.2978L168.582 8.13557C168.582 7.95828 168.641 7.82039 168.779 7.7219C168.917 7.6234 169.054 7.56431 169.212 7.56431H171.221C171.497 7.56431 171.694 7.7219 171.793 8.03708L177.426 21.8262L183.119 8.03708C183.159 7.87949 183.238 7.7613 183.336 7.6825C183.435 7.60371 183.533 7.56431 183.651 7.56431H185.72C185.897 7.56431 186.035 7.6234 186.133 7.7416C186.232 7.85979 186.291 7.99768 186.291 8.13557L188.339 26.2978C188.339 26.6721 188.143 26.8691 187.768 26.8691H186.409C186.015 26.8691 185.818 26.6721 185.818 26.2978L184.301 11.7601L178.569 25.5689C178.431 25.8841 178.254 26.0417 178.057 26.0417H176.796Z" fill="white"/>
<path d="M191.57 8.19467C191.57 7.78099 191.767 7.56431 192.161 7.56431H198.622C199.489 7.56431 200.277 7.7219 201.006 8.03708C201.735 8.35226 202.365 8.78563 202.917 9.33719C203.448 9.88876 203.882 10.5191 204.177 11.2677C204.473 11.9965 204.63 12.7648 204.63 13.5921C204.63 14.3801 204.473 15.1483 204.177 15.8575C203.882 16.5863 203.468 17.2167 202.936 17.7682C202.404 18.3198 201.774 18.7532 201.045 19.0881C200.316 19.4032 199.528 19.5805 198.681 19.5805H194.072V26.2978C194.072 26.6721 193.875 26.8691 193.501 26.8691H192.141C191.767 26.8691 191.57 26.6721 191.57 26.2978V8.19467ZM202.109 13.5724C202.109 13.1193 202.01 12.6663 201.833 12.2526C201.656 11.8192 201.4 11.445 201.085 11.1298C200.769 10.8146 200.395 10.5388 199.981 10.3418C199.548 10.1448 199.095 10.0463 198.622 10.0463H194.072V17.0985H198.622C199.095 17.0985 199.528 17 199.962 16.803C200.395 16.606 200.75 16.3499 201.085 16.0348C201.4 15.7196 201.656 15.3256 201.853 14.9119C202.03 14.4786 202.109 14.0452 202.109 13.5724Z" fill="white"/>
<path d="M219.798 24.3476C219.956 24.3476 220.094 24.4067 220.192 24.5052C220.311 24.6234 220.37 24.7613 220.37 24.9583V26.2978C220.37 26.4554 220.311 26.5933 220.212 26.6918C220.114 26.81 219.976 26.8691 219.798 26.8691H208.747C208.373 26.8691 208.176 26.6721 208.176 26.2978V8.13557C208.176 7.97798 208.235 7.84009 208.334 7.7416C208.432 7.6234 208.59 7.56431 208.767 7.56431H210.107C210.264 7.56431 210.402 7.60371 210.52 7.7022C210.619 7.80069 210.678 7.93858 210.678 8.13557V24.3476H219.798Z" fill="white"/>
<path d="M224.053 26.3963C223.994 26.5342 223.915 26.6524 223.797 26.7509C223.679 26.8297 223.541 26.8888 223.364 26.8888H221.985C221.591 26.8888 221.394 26.7312 221.394 26.4357C221.394 26.3766 221.394 26.3175 221.394 26.2781C221.394 26.2387 221.414 26.1993 221.414 26.1599C221.414 26.1205 221.433 26.1008 221.433 26.0614L228.939 8.05678C228.958 8.01738 228.978 7.95828 228.998 7.89919C229.017 7.84009 229.057 7.80069 229.096 7.7416C229.136 7.7022 229.195 7.6431 229.293 7.6234C229.372 7.58401 229.49 7.56431 229.628 7.56431H230.495C230.633 7.56431 230.731 7.58401 230.81 7.6234C230.889 7.6628 230.948 7.7022 231.007 7.7416C231.046 7.78099 231.086 7.84009 231.105 7.89919C231.125 7.95828 231.145 7.99768 231.165 8.05678L238.591 26.0614C238.591 26.1008 238.611 26.1402 238.611 26.1993C238.611 26.2387 238.63 26.2781 238.63 26.3175C238.63 26.3569 238.65 26.3963 238.65 26.416C238.65 26.7115 238.453 26.8691 238.059 26.8691H236.68C236.503 26.8691 236.365 26.8297 236.247 26.7312C236.129 26.6524 236.05 26.5342 235.991 26.3766L234.553 22.8111H225.432C225.137 23.5794 224.861 24.2885 224.605 24.8992C224.368 25.5295 224.171 26.022 224.053 26.3963ZM226.496 20.2897H233.587L230.081 11.4056L226.496 20.2897Z" fill="white"/>
<path d="M251.612 7.56431C251.769 7.56431 251.907 7.60371 252.025 7.7022C252.144 7.80069 252.222 7.93858 252.242 8.13557V9.45539C252.242 9.63267 252.183 9.77056 252.085 9.90846C251.986 10.0266 251.829 10.1054 251.612 10.1054H246.214V26.2781C246.214 26.4357 246.155 26.5736 246.057 26.6918C245.958 26.81 245.801 26.8691 245.623 26.8691H244.304C244.146 26.8691 244.008 26.81 243.89 26.6918C243.772 26.5736 243.713 26.4357 243.713 26.2584V10.0857H238.276C238.098 10.0857 237.961 10.0266 237.842 9.92815C237.724 9.82966 237.665 9.67207 237.665 9.45539V8.13557C237.665 7.95828 237.724 7.82039 237.842 7.7219C237.961 7.6234 238.098 7.56431 238.276 7.56431H251.612Z" fill="white"/>
<path d="M268.218 7.56431C268.612 7.56431 268.809 7.78099 268.809 8.19467V9.47508C268.809 9.63267 268.75 9.79026 268.651 9.90846C268.553 10.0266 268.395 10.0857 268.178 10.0857H257.699V15.4241H265.933C266.09 15.4241 266.228 15.4635 266.327 15.562C266.445 15.6605 266.504 15.7984 266.504 16.0151V17.3349C266.504 17.4925 266.465 17.6304 266.366 17.7485C266.268 17.8667 266.13 17.9258 265.933 17.9258H257.699V24.3279H268.218C268.612 24.3279 268.809 24.5249 268.809 24.9386V26.2781C268.809 26.6524 268.612 26.8494 268.238 26.8494H255.729C255.355 26.8494 255.158 26.6721 255.158 26.2978V8.17497C255.158 7.78099 255.355 7.58401 255.729 7.58401H268.218V7.56431Z" fill="white"/>
</svg>
