<svg width="298" height="60" viewBox="0 0 298 60" fill="none" xmlns="http://www.w3.org/2000/svg">
<path d="M79.7566 21.7652H84.1445L87.5505 34.5913L88.0414 36.9541H88.2869L88.9313 34.5913L92.0918 24.7109H95.958L99.1492 34.5913L99.7629 36.9234H100.008L100.469 34.5913L103.66 21.7652H108.048L102.218 43.7354H98.2287L94.792 33.1492L94.1476 30.7251H93.9022L93.2578 33.1492L89.8211 43.7354H85.8321L79.7566 21.7652ZM122.82 40.1146C122.124 41.342 121.183 42.3341 119.997 43.091C118.831 43.8479 117.399 44.2263 115.701 44.2263C114.555 44.2263 113.492 44.032 112.51 43.6433C111.548 43.2342 110.71 42.6716 109.994 41.9556C109.278 41.2397 108.715 40.401 108.306 39.4395C107.917 38.4576 107.723 37.3836 107.723 36.2176C107.723 35.1334 107.917 34.1106 108.306 33.1492C108.695 32.1673 109.237 31.3183 109.932 30.6023C110.628 29.8659 111.446 29.2829 112.387 28.8533C113.348 28.4237 114.402 28.209 115.548 28.209C116.754 28.209 117.828 28.4135 118.769 28.8226C119.71 29.2113 120.498 29.7636 121.132 30.4796C121.766 31.1751 122.247 32.0036 122.574 32.9651C122.902 33.9265 123.065 34.9698 123.065 36.0949C123.065 36.2381 123.065 36.3608 123.065 36.4631C123.045 36.5858 123.035 36.6984 123.035 36.8006C123.014 36.9029 123.004 37.0154 123.004 37.1382H111.681C111.763 37.7519 111.927 38.2837 112.172 38.7338C112.438 39.1633 112.755 39.5316 113.123 39.8384C113.512 40.1248 113.931 40.3396 114.381 40.4828C114.832 40.6055 115.292 40.6669 115.762 40.6669C116.683 40.6669 117.44 40.4623 118.033 40.0532C118.647 39.6236 119.127 39.0918 119.475 38.4576L122.82 40.1146ZM119.168 34.2845C119.148 34.0186 119.056 33.7219 118.892 33.3946C118.749 33.0673 118.524 32.7605 118.217 32.4741C117.931 32.1877 117.562 31.9525 117.112 31.7684C116.683 31.5843 116.161 31.4922 115.548 31.4922C114.688 31.4922 113.931 31.7377 113.277 32.2286C112.622 32.7196 112.162 33.4049 111.896 34.2845H119.168ZM125.632 21.7652H129.652V28.3624L129.407 30.5103H129.652C130.02 29.8761 130.593 29.3341 131.37 28.884C132.148 28.434 133.109 28.209 134.255 28.209C135.216 28.209 136.127 28.4135 136.986 28.8226C137.865 29.2113 138.632 29.7636 139.287 30.4796C139.962 31.1751 140.494 32.0138 140.883 32.9957C141.271 33.9777 141.466 35.0516 141.466 36.2176C141.466 37.3836 141.271 38.4576 140.883 39.4395C140.494 40.4214 139.962 41.2704 139.287 41.9863C138.632 42.6818 137.865 43.2342 136.986 43.6433C136.127 44.032 135.216 44.2263 134.255 44.2263C133.109 44.2263 132.148 44.0013 131.37 43.5512C130.593 43.1012 130.02 42.5591 129.652 41.925H129.407V43.7354H125.632V21.7652ZM133.426 40.5135C133.958 40.5135 134.459 40.4112 134.93 40.2066C135.421 40.0021 135.85 39.7157 136.219 39.3475C136.587 38.9792 136.883 38.5292 137.108 37.9973C137.333 37.4655 137.446 36.8722 137.446 36.2176C137.446 35.563 137.333 34.9698 137.108 34.4379C136.883 33.9061 136.587 33.456 136.219 33.0878C135.85 32.7196 135.421 32.4332 134.93 32.2286C134.459 32.0241 133.958 31.9218 133.426 31.9218C132.894 31.9218 132.383 32.0241 131.892 32.2286C131.422 32.4127 131.002 32.6889 130.634 33.0571C130.266 33.4253 129.969 33.8754 129.744 34.4072C129.519 34.9391 129.407 35.5426 129.407 36.2176C129.407 36.8927 129.519 37.4962 129.744 38.028C129.969 38.5599 130.266 39.0099 130.634 39.3781C131.002 39.7464 131.422 40.0327 131.892 40.2373C132.383 40.4214 132.894 40.5135 133.426 40.5135ZM143.881 21.7652H147.901V28.3624L147.656 30.5103H147.901C148.269 29.8761 148.842 29.3341 149.619 28.884C150.397 28.434 151.358 28.209 152.504 28.209C153.465 28.209 154.375 28.4135 155.235 28.8226C156.114 29.2113 156.881 29.7636 157.536 30.4796C158.211 31.1751 158.743 32.0138 159.132 32.9957C159.52 33.9777 159.715 35.0516 159.715 36.2176C159.715 37.3836 159.52 38.4576 159.132 39.4395C158.743 40.4214 158.211 41.2704 157.536 41.9863C156.881 42.6818 156.114 43.2342 155.235 43.6433C154.375 44.032 153.465 44.2263 152.504 44.2263C151.358 44.2263 150.397 44.0013 149.619 43.5512C148.842 43.1012 148.269 42.5591 147.901 41.925H147.656V43.7354H143.881V21.7652ZM151.675 40.5135C152.207 40.5135 152.708 40.4112 153.179 40.2066C153.67 40.0021 154.099 39.7157 154.468 39.3475C154.836 38.9792 155.132 38.5292 155.357 37.9973C155.582 37.4655 155.695 36.8722 155.695 36.2176C155.695 35.563 155.582 34.9698 155.357 34.4379C155.132 33.9061 154.836 33.456 154.468 33.0878C154.099 32.7196 153.67 32.4332 153.179 32.2286C152.708 32.0241 152.207 31.9218 151.675 31.9218C151.143 31.9218 150.632 32.0241 150.141 32.2286C149.671 32.4127 149.251 32.6889 148.883 33.0571C148.515 33.4253 148.218 33.8754 147.993 34.4072C147.768 34.9391 147.656 35.5426 147.656 36.2176C147.656 36.8927 147.768 37.4962 147.993 38.028C148.218 38.5599 148.515 39.0099 148.883 39.3781C149.251 39.7464 149.671 40.0327 150.141 40.2373C150.632 40.4214 151.143 40.5135 151.675 40.5135ZM166.406 42.9989L160.085 28.6999H164.657L168.462 37.8132H168.677L172.328 28.6999H176.808L167.388 50.3632H163.062L166.406 42.9989ZM183.95 43.7354V23.6369H177.721V21.7652H192.142V23.6369H185.913V43.7354H183.95ZM205.472 40.1759C205.206 40.7283 204.869 41.2499 204.459 41.7409C204.05 42.2318 203.57 42.6614 203.017 43.0296C202.485 43.3978 201.872 43.6842 201.176 43.8888C200.481 44.1138 199.714 44.2263 198.875 44.2263C197.791 44.2263 196.788 44.032 195.868 43.6433C194.947 43.2342 194.149 42.6716 193.474 41.9556C192.82 41.2397 192.308 40.401 191.94 39.4395C191.572 38.4576 191.388 37.3836 191.388 36.2176C191.388 35.1334 191.551 34.1106 191.879 33.1492C192.227 32.1673 192.717 31.3183 193.352 30.6023C193.986 29.8659 194.753 29.2829 195.653 28.8533C196.553 28.4237 197.566 28.209 198.691 28.209C199.775 28.209 200.747 28.4033 201.606 28.792C202.485 29.1602 203.232 29.692 203.846 30.3876C204.459 31.0626 204.93 31.8809 205.257 32.8423C205.605 33.8038 205.779 34.8675 205.779 36.0335C205.779 36.0949 205.779 36.1563 205.779 36.2176C205.758 36.279 205.748 36.3301 205.748 36.3711V36.5552H193.382C193.403 37.5984 193.587 38.4883 193.935 39.2247C194.282 39.9611 194.722 40.5748 195.254 41.0658C195.786 41.5363 196.379 41.884 197.034 42.1091C197.688 42.3341 198.323 42.4466 198.936 42.4466C200.205 42.4466 201.207 42.1602 201.943 41.5874C202.68 40.9942 203.293 40.2475 203.784 39.3475L205.472 40.1759ZM203.723 34.8982C203.703 34.4072 203.6 33.8754 203.416 33.3026C203.232 32.7298 202.946 32.1979 202.557 31.707C202.168 31.216 201.647 30.8069 200.992 30.4796C200.358 30.1523 199.57 29.9887 198.629 29.9887C198.016 29.9887 197.422 30.1012 196.85 30.3262C196.277 30.5308 195.755 30.8376 195.285 31.2467C194.835 31.6559 194.446 32.1673 194.119 32.781C193.812 33.3946 193.607 34.1004 193.505 34.8982H203.723ZM208.52 28.6999H210.361V31.5229H210.483C210.688 31.0728 210.964 30.6535 211.312 30.2648C211.66 29.8557 212.048 29.4977 212.478 29.1909C212.928 28.884 213.409 28.6488 213.92 28.4851C214.452 28.301 214.994 28.209 215.546 28.209C216.794 28.209 217.817 28.5363 218.615 29.1909C219.413 29.8455 219.955 30.6739 220.241 31.6763C220.732 30.6944 221.438 29.8761 222.358 29.2215C223.279 28.5465 224.384 28.209 225.672 28.209C226.572 28.209 227.34 28.3624 227.974 28.6692C228.628 28.9556 229.16 29.3647 229.569 29.8966C229.999 30.4285 230.306 31.0626 230.49 31.799C230.694 32.5355 230.797 33.3333 230.797 34.1924V43.7354H228.833V34.53C228.833 33.0367 228.546 31.9116 227.974 31.1547C227.401 30.3773 226.47 29.9887 225.181 29.9887C224.506 29.9887 223.882 30.1523 223.31 30.4796C222.757 30.7865 222.277 31.2058 221.867 31.7377C221.479 32.2491 221.172 32.8526 220.947 33.5481C220.742 34.2231 220.64 34.9289 220.64 35.6653V43.7354H218.676V34.5913C218.676 33.0571 218.38 31.9116 217.786 31.1547C217.214 30.3773 216.303 29.9887 215.055 29.9887C214.36 29.9887 213.726 30.1523 213.153 30.4796C212.601 30.8069 212.12 31.2467 211.711 31.799C211.322 32.3514 211.015 32.9855 210.79 33.7015C210.586 34.397 210.483 35.1232 210.483 35.8801V43.7354H208.52V28.6999ZM234.197 28.6999H236.038V31.3081H236.161C236.406 30.899 236.703 30.5103 237.051 30.1421C237.399 29.7534 237.808 29.4159 238.278 29.1295C238.749 28.8431 239.281 28.6181 239.874 28.4544C240.467 28.2908 241.122 28.209 241.838 28.209C242.799 28.209 243.709 28.4135 244.569 28.8226C245.428 29.2113 246.174 29.7636 246.808 30.4796C247.463 31.1751 247.974 32.0138 248.343 32.9957C248.731 33.9777 248.926 35.0516 248.926 36.2176C248.926 37.3836 248.731 38.4576 248.343 39.4395C247.974 40.4214 247.463 41.2704 246.808 41.9863C246.174 42.6818 245.428 43.2342 244.569 43.6433C243.709 44.032 242.799 44.2263 241.838 44.2263C241.122 44.2263 240.467 44.1343 239.874 43.9501C239.281 43.7865 238.749 43.5615 238.278 43.2751C237.808 42.9887 237.399 42.6614 237.051 42.2932C236.703 41.9045 236.406 41.5056 236.161 41.0965H236.038L236.161 43.183V50.3632H234.197V28.6999ZM241.5 42.4466C242.216 42.4466 242.901 42.3034 243.556 42.017C244.231 41.7306 244.814 41.3215 245.305 40.7896C245.816 40.2578 246.215 39.6032 246.502 38.8258C246.808 38.0485 246.962 37.1791 246.962 36.2176C246.962 35.2562 246.808 34.397 246.502 33.6401C246.215 32.8628 245.816 32.2082 245.305 31.6763C244.814 31.124 244.231 30.7046 243.556 30.4182C242.901 30.1319 242.216 29.9887 241.5 29.9887C240.784 29.9887 240.089 30.1319 239.413 30.4182C238.759 30.6842 238.176 31.0831 237.664 31.6149C237.174 32.1468 236.775 32.8014 236.468 33.5788C236.181 34.3561 236.038 35.2357 236.038 36.2176C236.038 37.1995 236.181 38.0792 236.468 38.8565C236.775 39.6134 237.174 40.268 237.664 40.8203C238.176 41.3522 238.759 41.7613 239.413 42.0477C240.089 42.3136 240.784 42.4466 241.5 42.4466ZM251.37 43.7354V21.7652H253.334V43.7354H251.37ZM267.042 41.0658H266.919C266.408 41.9454 265.692 42.6921 264.771 43.3058C263.871 43.9195 262.818 44.2263 261.611 44.2263C260.792 44.2263 260.036 44.0933 259.34 43.8274C258.644 43.5819 258.041 43.2444 257.53 42.8148C257.018 42.3648 256.619 41.8329 256.333 41.2192C256.047 40.6055 255.903 39.9407 255.903 39.2247C255.903 38.4065 256.067 37.6803 256.394 37.0461C256.742 36.412 257.202 35.8801 257.775 35.4505C258.368 35.0209 259.043 34.7039 259.8 34.4993C260.578 34.2743 261.396 34.1618 262.255 34.1618C263.278 34.1618 264.198 34.2845 265.017 34.53C265.835 34.755 266.51 35.0209 267.042 35.3278V34.4072C267.042 33.7322 266.919 33.1185 266.674 32.5662C266.428 32.0138 266.101 31.5433 265.692 31.1547C265.283 30.766 264.792 30.4694 264.219 30.2648C263.667 30.0603 263.084 29.958 262.47 29.958C261.549 29.958 260.731 30.1625 260.015 30.5717C259.299 30.9603 258.706 31.5331 258.235 32.29L256.517 31.216C257.11 30.2955 257.918 29.5693 258.941 29.0374C259.964 28.4851 261.12 28.209 262.408 28.209C263.411 28.209 264.311 28.3624 265.109 28.6692C265.907 28.9556 266.592 29.375 267.165 29.9273C267.737 30.4592 268.177 31.1035 268.484 31.8604C268.791 32.5968 268.944 33.4253 268.944 34.3459V43.7354H267.042V41.0658ZM267.042 37.0461C266.428 36.6779 265.753 36.3813 265.017 36.1563C264.301 35.9108 263.482 35.788 262.562 35.788C261.887 35.788 261.263 35.8699 260.69 36.0335C260.138 36.1972 259.647 36.4324 259.217 36.7393C258.808 37.0257 258.481 37.3836 258.235 37.8132C258.01 38.2428 257.898 38.7235 257.898 39.2554C257.898 39.7464 258 40.1964 258.205 40.6055C258.43 40.9942 258.726 41.3317 259.095 41.6181C259.463 41.884 259.872 42.0988 260.322 42.2625C260.792 42.4057 261.273 42.4773 261.764 42.4773C262.439 42.4773 263.094 42.3341 263.728 42.0477C264.362 41.7613 264.925 41.3726 265.416 40.8817C265.907 40.3703 266.295 39.7873 266.582 39.1327C266.888 38.4781 267.042 37.7825 267.042 37.0461ZM273.734 30.4796H271.003V28.6999H273.734V24.0972H275.698V28.6999H279.441V30.4796H275.698V39.5316C275.698 40.4112 275.913 41.0658 276.342 41.4954C276.751 41.9454 277.242 42.1704 277.815 42.1704C278.122 42.1704 278.378 42.15 278.582 42.1091C278.807 42.0477 279.053 41.9556 279.319 41.8329L279.932 43.5206C279.584 43.6842 279.226 43.7967 278.858 43.8581C278.511 43.9399 278.091 43.9808 277.6 43.9808C276.536 43.9808 275.636 43.6433 274.9 42.9682C274.532 42.6205 274.245 42.2011 274.041 41.7102C273.836 41.1988 273.734 40.5851 273.734 39.8691V30.4796ZM295.428 40.1759C295.162 40.7283 294.825 41.2499 294.416 41.7409C294.006 42.2318 293.526 42.6614 292.973 43.0296C292.442 43.3978 291.828 43.6842 291.132 43.8888C290.437 44.1138 289.67 44.2263 288.831 44.2263C287.747 44.2263 286.744 44.032 285.824 43.6433C284.903 43.2342 284.106 42.6716 283.431 41.9556C282.776 41.2397 282.265 40.401 281.896 39.4395C281.528 38.4576 281.344 37.3836 281.344 36.2176C281.344 35.1334 281.508 34.1106 281.835 33.1492C282.183 32.1673 282.674 31.3183 283.308 30.6023C283.942 29.8659 284.709 29.2829 285.609 28.8533C286.509 28.4237 287.522 28.209 288.647 28.209C289.731 28.209 290.703 28.4033 291.562 28.792C292.442 29.1602 293.188 29.692 293.802 30.3876C294.416 31.0626 294.886 31.8809 295.213 32.8423C295.561 33.8038 295.735 34.8675 295.735 36.0335C295.735 36.0949 295.735 36.1563 295.735 36.2176C295.715 36.279 295.704 36.3301 295.704 36.3711V36.5552H283.338C283.359 37.5984 283.543 38.4883 283.891 39.2247C284.239 39.9611 284.678 40.5748 285.21 41.0658C285.742 41.5363 286.335 41.884 286.99 42.1091C287.645 42.3341 288.279 42.4466 288.892 42.4466C290.161 42.4466 291.163 42.1602 291.899 41.5874C292.636 40.9942 293.25 40.2475 293.741 39.3475L295.428 40.1759ZM293.679 34.8982C293.659 34.4072 293.556 33.8754 293.372 33.3026C293.188 32.7298 292.902 32.1979 292.513 31.707C292.124 31.216 291.603 30.8069 290.948 30.4796C290.314 30.1523 289.527 29.9887 288.586 29.9887C287.972 29.9887 287.379 30.1012 286.806 30.3262C286.233 30.5308 285.711 30.8376 285.241 31.2467C284.791 31.6559 284.402 32.1673 284.075 32.781C283.768 33.3946 283.563 34.1004 283.461 34.8982H293.679Z" fill="white"/>
<g clip-path="url(#clip0_7205_222)">
<path d="M12.4595 8.58743C12.1984 8.12326 11.7052 7.84766 11.1685 7.84766H1.85608C0.710165 7.84766 -0.000594705 9.09511 0.579617 10.0815L25.8914 53.4378C26.4716 54.4242 27.8931 54.4242 28.4588 53.4233L35.2618 41.5C35.4794 41.1228 35.5229 40.6731 35.3633 40.267L31.8966 30.65C31.4759 29.4896 29.9093 29.3155 29.2421 30.3599L28.3718 31.7524C27.7771 32.6952 26.3846 32.6662 25.8333 31.7089L12.4595 8.58743Z" fill="white"/>
<path d="M35.0716 18.439C34.8105 17.9748 34.3173 17.6992 33.7806 17.6992H24.4537C23.3078 17.6992 22.5971 18.9467 23.1773 19.933L42.8029 53.4403C43.3832 54.4266 44.8047 54.4121 45.3704 53.4258L53.5804 39.0365C53.856 38.5578 53.8415 37.9631 53.5369 37.4989L48.8807 30.2463C48.3004 29.347 46.995 29.3325 46.4003 30.2173L45.2979 31.8564C44.6886 32.7702 43.3251 32.7267 42.7739 31.7694L35.0716 18.439Z" fill="white"/>
<path d="M51.449 52.6982C65.5626 40.5718 55.9021 26.7917 48.896 21.1782C48.896 21.1782 43.9932 16.2319 38.4232 13.6354C35.4931 12.2574 30.7354 10.7489 26.906 9.64646C25.9776 9.37086 26.1662 7.92033 27.1381 7.90582C30.1262 7.87681 33.6364 7.8623 36.4215 7.8478C42.2526 7.83329 49.7954 8.92119 55.3509 14.1286C60.8919 19.3215 61.5156 20.5109 63.1257 23.5861L63.1402 23.6151C72.7427 43.5018 61.2255 51.7844 52.0727 54.1052C51.2314 54.3083 50.8107 53.2494 51.449 52.6982Z" fill="#008FFF"/>
<path d="M35.9421 7.8478C35.884 7.8478 35.8695 7.93483 35.9276 7.94934C37.7117 8.47153 46.1683 11.01 51.1291 13.3308C56.6846 15.9272 64.0678 21.1637 64.0969 21.1782C65.0107 21.9034 65.9535 22.7738 66.8964 23.7601C67.4911 24.3838 68.521 24.3693 69.0577 23.6731L73.1917 18.3786C73.6123 17.8419 73.5688 17.0732 73.0901 16.5945C72.3794 15.8837 71.5381 15.0714 70.5372 14.1431C64.9817 8.92119 57.4389 7.83329 51.6078 7.8478C45.5011 7.8623 35.9421 7.8478 35.9421 7.8478Z" fill="#008FFF"/>
<path d="M45.3583 31.7669C44.8071 32.7243 43.4581 32.7678 42.8344 31.8539L41.732 30.2148C41.1372 29.33 39.8318 29.3445 39.2516 30.2438L34.5953 37.511C34.2907 37.9752 34.2762 38.5699 34.5518 39.0486L42.7618 53.4378C43.3275 54.4242 44.7491 54.4387 45.3293 53.4523L55.541 36.0024C54.4386 31.7814 51.8567 27.9955 49.1587 25.167L45.3583 31.7669Z" fill="white"/>
</g>
<defs>
<clipPath id="clip0_7205_222">
<rect width="73.934" height="60.0044" fill="white"/>
</clipPath>
</defs>
</svg>
