<svg xmlns="http://www.w3.org/2000/svg" viewBox="0 0 533.5 544.3" width="24" height="24">
  <path fill="#4285F4" d="M533.5 278.4c0-18.6-1.5-37.1-4.8-54.8H272v103.8h147.3c-6.4 34.6-25.6 63.9-54.5 83.4v69.2h87.9c51.4-47.3 81.8-117.3 81.8-201.6z"/>
  <path fill="#34A853" d="M272 544.3c73.7 0 135.6-24.5 180.8-66.6l-87.9-69.2c-24.4 16.4-55.7 26-92.9 26-71.4 0-132-48.2-153.5-113.2H28.6v71.4C74.1 477.3 167 544.3 272 544.3z"/>
  <path fill="#FBBC05" d="M118.5 322.7c-10.6-31.6-10.6-65.6 0-97.2V154.1H28.6c-33.1 64.4-33.1 141.4 0 205.8l89.9-37.2z"/>
  <path fill="#EA4335" d="M272 107.9c39.9 0 75.8 13.7 104.1 40.6l78.1-78.1C407.6 24.7 345.7 0 272 0 167 0 74.1 67 28.6 154.1l89.9 71.4C140 156.1 200.6 107.9 272 107.9z"/>
</svg>